<svg width="34" height="35" viewBox="0 0 34 35" fill="none" xmlns="http://www.w3.org/2000/svg">
<path d="M24.1905 12.8162L22.6377 22.235C22.6053 22.4314 22.4962 22.6069 22.3345 22.7228C22.1727 22.8388 21.9715 22.8857 21.7752 22.8534C21.5788 22.821 21.4033 22.7119 21.2874 22.5502C21.1714 22.3884 21.1244 22.1872 21.1568 21.9909L22.4158 14.3585L10.4773 22.9176C10.3156 23.0335 10.1146 23.0805 9.9183 23.0481C9.72204 23.0158 9.54667 22.9068 9.43077 22.7451C9.31487 22.5834 9.26794 22.3824 9.30029 22.1861C9.33265 21.9898 9.44165 21.8145 9.60331 21.6986L21.5418 13.1394L13.9092 11.8817C13.7128 11.8494 13.5374 11.7403 13.4214 11.5786C13.3054 11.4168 13.2585 11.2156 13.2909 11.0192C13.3232 10.8229 13.4323 10.6474 13.594 10.5314C13.7558 10.4155 13.957 10.3685 14.1533 10.4009L23.5721 11.9537C23.6694 11.9697 23.7626 12.0047 23.8463 12.0567C23.93 12.1087 24.0027 12.1767 24.0601 12.2568C24.1175 12.3369 24.1586 12.4275 24.181 12.5235C24.2033 12.6195 24.2066 12.719 24.1905 12.8162Z" fill="#F2F0F5"/>
</svg>
