<svg width="17" height="16" viewBox="0 0 17 16" fill="none" xmlns="http://www.w3.org/2000/svg">
<g clip-path="url(#clip0_73_2266)">
<path d="M14.1399 8.35378L9.63988 12.8538C9.54606 12.9476 9.41881 13.0003 9.28613 13.0003C9.15345 13.0003 9.0262 12.9476 8.93238 12.8538C8.83856 12.76 8.78585 12.6327 8.78585 12.5C8.78585 12.3674 8.83856 12.2401 8.93238 12.1463L12.5793 8.50003H2.78613C2.65352 8.50003 2.52635 8.44736 2.43258 8.35359C2.33881 8.25982 2.28613 8.13264 2.28613 8.00003C2.28613 7.86743 2.33881 7.74025 2.43258 7.64648C2.52635 7.55271 2.65352 7.50003 2.78613 7.50003H12.5793L8.93238 3.85378C8.83856 3.75996 8.78585 3.63272 8.78585 3.50003C8.78585 3.36735 8.83856 3.2401 8.93238 3.14628C9.0262 3.05246 9.15345 2.99976 9.28613 2.99976C9.41881 2.99976 9.54606 3.05246 9.63988 3.14628L14.1399 7.64628C14.1864 7.69272 14.2233 7.74786 14.2484 7.80856C14.2736 7.86926 14.2865 7.93433 14.2865 8.00003C14.2865 8.06574 14.2736 8.13081 14.2484 8.1915C14.2233 8.2522 14.1864 8.30735 14.1399 8.35378Z" fill="#F2F0F5"/>
</g>
<defs>
<clipPath id="clip0_73_2266">
<rect width="16" height="16" fill="white" transform="translate(0.286133)"/>
</clipPath>
</defs>
</svg>
