<svg width="32" height="33" viewBox="0 0 32 33" fill="none" xmlns="http://www.w3.org/2000/svg">
<path d="M9.86717 23.5996C8.93384 24.3774 7.96161 24.7329 6.9505 24.6663C5.93939 24.5996 5.05606 24.2552 4.3005 23.6329C3.54495 23.0107 3.02828 22.1941 2.7505 21.1829C2.47272 20.1718 2.65606 19.1329 3.3005 18.0663L5.8005 13.9329C5.24495 13.4441 4.80606 12.8552 4.48384 12.1663C4.16161 11.4774 4.0005 10.7329 4.0005 9.93294C4.0005 8.46628 4.52272 7.21072 5.56717 6.16628C6.61161 5.12183 7.86717 4.59961 9.33384 4.59961C10.8005 4.59961 12.0561 5.12183 13.1005 6.16628C14.1449 7.21072 14.6672 8.46628 14.6672 9.93294C14.6672 11.3996 14.1449 12.6552 13.1005 13.6996C12.0561 14.7441 10.8005 15.2663 9.33384 15.2663C9.13384 15.2663 8.93384 15.2552 8.73384 15.2329C8.53384 15.2107 8.34495 15.1774 8.16717 15.1329L5.6005 19.4663C5.35606 19.8663 5.27828 20.2607 5.36717 20.6496C5.45606 21.0385 5.64495 21.3552 5.93384 21.5996C6.22272 21.8441 6.56717 21.9829 6.96717 22.0163C7.36717 22.0496 7.75606 21.9107 8.13384 21.5996L22.1338 9.56628C23.0672 8.7885 24.0449 8.4385 25.0672 8.51628C26.0894 8.59405 26.9783 8.94405 27.7338 9.56628C28.4894 10.1885 29.0005 11.0052 29.2672 12.0163C29.5338 13.0274 29.3449 14.0663 28.7005 15.1329L26.2005 19.2663C26.7561 19.7552 27.1949 20.3441 27.5172 21.0329C27.8394 21.7218 28.0005 22.4663 28.0005 23.2663C28.0005 24.7329 27.4783 25.9885 26.4338 27.0329C25.3894 28.0774 24.1338 28.5996 22.6672 28.5996C21.2005 28.5996 19.9449 28.0774 18.9005 27.0329C17.8561 25.9885 17.3338 24.7329 17.3338 23.2663C17.3338 21.7996 17.8561 20.5441 18.9005 19.4996C19.9449 18.4552 21.2005 17.9329 22.6672 17.9329C22.8672 17.9329 23.0616 17.9441 23.2505 17.9663C23.4394 17.9885 23.6227 18.0218 23.8005 18.0663L26.4005 13.7329C26.6449 13.3329 26.7227 12.9385 26.6338 12.5496C26.5449 12.1607 26.3561 11.8441 26.0672 11.5996C25.7783 11.3552 25.4338 11.2163 25.0338 11.1829C24.6338 11.1496 24.2449 11.2885 23.8672 11.5996L9.86717 23.5996ZM9.33384 12.5996C10.0672 12.5996 10.6949 12.3385 11.2172 11.8163C11.7394 11.2941 12.0005 10.6663 12.0005 9.93294C12.0005 9.19961 11.7394 8.57183 11.2172 8.04961C10.6949 7.52739 10.0672 7.26628 9.33384 7.26628C8.6005 7.26628 7.97272 7.52739 7.4505 8.04961C6.92828 8.57183 6.66717 9.19961 6.66717 9.93294C6.66717 10.6663 6.92828 11.2941 7.4505 11.8163C7.97272 12.3385 8.6005 12.5996 9.33384 12.5996ZM22.6672 25.9329C23.4005 25.9329 24.0283 25.6718 24.5505 25.1496C25.0727 24.6274 25.3338 23.9996 25.3338 23.2663C25.3338 22.5329 25.0727 21.9052 24.5505 21.3829C24.0283 20.8607 23.4005 20.5996 22.6672 20.5996C21.9338 20.5996 21.3061 20.8607 20.7838 21.3829C20.2616 21.9052 20.0005 22.5329 20.0005 23.2663C20.0005 23.9996 20.2616 24.6274 20.7838 25.1496C21.3061 25.6718 21.9338 25.9329 22.6672 25.9329Z" fill="white"/>
</svg>
