<svg width="32" height="32" viewBox="0 0 32 32" fill="none" xmlns="http://www.w3.org/2000/svg">
<path d="M20.4013 22.266L22.268 20.3993L17.3346 15.466V9.33268H14.668V16.5327L20.4013 22.266ZM16.0013 29.3327C14.1569 29.3327 12.4235 28.9827 10.8013 28.2827C9.17908 27.5827 7.76797 26.6327 6.56797 25.4327C5.36797 24.2327 4.41797 22.8216 3.71797 21.1993C3.01797 19.5771 2.66797 17.8438 2.66797 15.9993C2.66797 14.1549 3.01797 12.4216 3.71797 10.7993C4.41797 9.17713 5.36797 7.76602 6.56797 6.56602C7.76797 5.36602 9.17908 4.41602 10.8013 3.71602C12.4235 3.01602 14.1569 2.66602 16.0013 2.66602C17.8457 2.66602 19.5791 3.01602 21.2013 3.71602C22.8235 4.41602 24.2346 5.36602 25.4346 6.56602C26.6346 7.76602 27.5846 9.17713 28.2846 10.7993C28.9846 12.4216 29.3346 14.1549 29.3346 15.9993C29.3346 17.8438 28.9846 19.5771 28.2846 21.1993C27.5846 22.8216 26.6346 24.2327 25.4346 25.4327C24.2346 26.6327 22.8235 27.5827 21.2013 28.2827C19.5791 28.9827 17.8457 29.3327 16.0013 29.3327ZM16.0013 26.666C18.9569 26.666 21.4735 25.6271 23.5513 23.5493C25.6291 21.4716 26.668 18.9549 26.668 15.9993C26.668 13.0438 25.6291 10.5271 23.5513 8.44935C21.4735 6.37157 18.9569 5.33268 16.0013 5.33268C13.0457 5.33268 10.5291 6.37157 8.4513 8.44935C6.37352 10.5271 5.33464 13.0438 5.33464 15.9993C5.33464 18.9549 6.37352 21.4716 8.4513 23.5493C10.5291 25.6271 13.0457 26.666 16.0013 26.666Z" fill="white"/>
</svg>
