<svg width="32" height="33" viewBox="0 0 32 33" fill="none" xmlns="http://www.w3.org/2000/svg">
<path d="M10.7659 27.2708C10.5214 27.2708 10.2937 27.2097 10.0826 27.0875C9.87144 26.9653 9.71033 26.7931 9.59922 26.5708L6.99922 21.9375H8.93255L10.2659 24.6042H13.3326V23.2708H11.0659L9.73255 20.6042H6.26589L4.36589 17.2708C4.32144 17.1597 4.28255 17.0486 4.24922 16.9375C4.21589 16.8264 4.19922 16.7153 4.19922 16.6042C4.19922 16.5153 4.25477 16.2931 4.36589 15.9375L6.26589 12.6042H9.73255L11.0659 9.9375H13.3326V8.60417H10.2659L8.93255 11.2708H6.99922L9.59922 6.6375C9.71033 6.41528 9.87144 6.24306 10.0826 6.12083C10.2937 5.99861 10.5214 5.9375 10.7659 5.9375H13.9992C14.377 5.9375 14.6937 6.06528 14.9492 6.32083C15.2048 6.57639 15.3326 6.89306 15.3326 7.27083V12.6042H13.3326L11.9992 13.9375H15.3326V17.9375H12.3992L11.0659 15.2708H7.99922L6.66589 16.6042H10.2659L11.5992 19.2708H15.3326V25.9375C15.3326 26.3153 15.2048 26.6319 14.9492 26.8875C14.6937 27.1431 14.377 27.2708 13.9992 27.2708H10.7659ZM17.9992 27.2708C17.6214 27.2708 17.3048 27.1431 17.0492 26.8875C16.7937 26.6319 16.6659 26.3153 16.6659 25.9375V19.2708H20.3992L21.7326 16.6042H25.3326L23.9992 15.2708H20.9326L19.5992 17.9375H16.6659V13.9375H19.9992L18.6659 12.6042H16.6659V7.27083C16.6659 6.89306 16.7937 6.57639 17.0492 6.32083C17.3048 6.06528 17.6214 5.9375 17.9992 5.9375H21.2326C21.477 5.9375 21.7048 5.99861 21.9159 6.12083C22.127 6.24306 22.2881 6.41528 22.3992 6.6375L24.9992 11.2708H23.0659L21.7326 8.60417H18.6659V9.9375H20.9326L22.2659 12.6042H25.7326L27.6326 15.9375C27.677 16.0486 27.7159 16.1597 27.7492 16.2708C27.7826 16.3819 27.7992 16.4931 27.7992 16.6042C27.7992 16.6931 27.7437 16.9153 27.6326 17.2708L25.7326 20.6042H22.2659L20.9326 23.2708H18.6659V24.6042H21.7326L23.0659 21.9375H24.9992L22.3992 26.5708C22.2881 26.7931 22.127 26.9653 21.9159 27.0875C21.7048 27.2097 21.477 27.2708 21.2326 27.2708H17.9992Z" fill="white"/>
</svg>
