<svg width="32" height="33" viewBox="0 0 32 33" fill="none" xmlns="http://www.w3.org/2000/svg">
<path d="M6.53281 28.6029L6.33281 26.9029L6.06615 26.7695C5.97726 26.7251 5.85503 26.6473 5.69948 26.5362L4.09948 27.2029L2.63281 24.6695L3.99948 23.6362V22.9362L2.63281 21.8695L4.09948 19.3362L5.69948 20.0029C5.81059 19.9362 5.91615 19.8695 6.01615 19.8029C6.11615 19.7362 6.2217 19.6806 6.33281 19.6362L6.53281 17.9362H9.46615L9.66615 19.6362L9.79948 19.7029L9.93281 19.7695C9.97726 19.7918 10.0328 19.8251 10.0995 19.8695L10.2995 20.0029L11.8995 19.3362L13.3661 21.8695L11.9995 22.9029V23.6362L19.2995 19.4029L17.7995 22.0362L18.1995 22.3362L12.9328 25.4029L11.8995 27.2029L10.2995 26.5362C10.1884 26.6029 10.0828 26.6695 9.98281 26.7362C9.88281 26.8029 9.77726 26.8584 9.66615 26.9029L9.46615 28.6029H6.53281ZM7.99948 21.2695C7.44392 21.2695 6.9717 21.464 6.58281 21.8529C6.19392 22.2418 5.99948 22.714 5.99948 23.2695C5.99948 23.8251 6.19392 24.2973 6.58281 24.6862C6.9717 25.0751 7.44392 25.2695 7.99948 25.2695C8.55504 25.2695 9.02726 25.0751 9.41615 24.6862C9.80504 24.2973 9.99948 23.8251 9.99948 23.2695C9.99948 22.714 9.80504 22.2418 9.41615 21.8529C9.02726 21.464 8.55504 21.2695 7.99948 21.2695ZM13.1995 13.9362L12.9995 12.2362C12.955 12.1918 12.8995 12.1584 12.8328 12.1362C12.7661 12.114 12.7106 12.0806 12.6661 12.0362V19.3695L12.1661 18.5029L10.6661 19.1362V12.3362L9.33281 10.0029L10.6661 8.96953V8.26953L9.29948 7.20286L10.7661 4.66953L12.3661 5.3362C12.4773 5.26953 12.5828 5.20286 12.6828 5.1362C12.7828 5.06953 12.8884 5.01398 12.9995 4.96953L13.1995 3.26953H16.1328L16.3328 4.96953L16.5995 5.10286C16.6884 5.14731 16.8106 5.22509 16.9661 5.3362L18.5661 4.66953L20.0328 7.20286L18.6661 8.2362V8.9362L20.0328 10.0029L18.5661 12.5362L16.9661 11.8695C16.855 11.9362 16.7495 12.0029 16.6495 12.0695C16.5495 12.1362 16.4439 12.1918 16.3328 12.2362L16.1328 13.9362H13.1995ZM14.6661 6.60286C14.1106 6.60286 13.6384 6.79731 13.2495 7.1862C12.8606 7.57509 12.6661 8.04731 12.6661 8.60286C12.6661 9.15842 12.8606 9.63064 13.2495 10.0195C13.6384 10.4084 14.1106 10.6029 14.6661 10.6029C15.2217 10.6029 15.6939 10.4084 16.0828 10.0195C16.4717 9.63064 16.6661 9.15842 16.6661 8.60286C16.6661 8.04731 16.4717 7.57509 16.0828 7.1862C15.6939 6.79731 15.2217 6.60286 14.6661 6.60286ZM22.5328 28.6029L22.3328 26.9029L22.0661 26.7695C21.9773 26.7251 21.855 26.6473 21.6995 26.5362L20.0995 27.2029L18.6328 24.6695L19.9995 23.6362V22.9362L18.6328 21.9029L20.0995 19.3362L21.6995 20.0029C21.7661 19.9584 21.8106 19.9306 21.8328 19.9195L22.3328 19.6695L15.1328 14.6029H16.7328L16.8661 13.4029L23.3661 17.9362H25.4661L25.6661 19.6362L25.7995 19.7029L25.9328 19.7695C25.9773 19.7918 26.0328 19.8251 26.0995 19.8695L26.2995 20.0029L27.8995 19.3362L29.3661 21.8695L27.9995 22.9029V23.6029L29.3661 24.6695L27.8995 27.2029L26.2995 26.5362C26.1884 26.6029 26.0828 26.6695 25.9828 26.7362C25.8828 26.8029 25.7773 26.8584 25.6661 26.9029L25.4661 28.6029H22.5328ZM23.9995 21.2695C23.4439 21.2695 22.9717 21.464 22.5828 21.8529C22.1939 22.2418 21.9995 22.714 21.9995 23.2695C21.9995 23.8251 22.1939 24.2973 22.5828 24.6862C22.9717 25.0751 23.4439 25.2695 23.9995 25.2695C24.555 25.2695 25.0273 25.0751 25.4161 24.6862C25.805 24.2973 25.9995 23.8251 25.9995 23.2695C25.9995 22.714 25.805 22.2418 25.4161 21.8529C25.0273 21.464 24.555 21.2695 23.9995 21.2695Z" fill="white"/>
</svg>
