<svg width="181" height="11" viewBox="0 0 181 11" fill="none" xmlns="http://www.w3.org/2000/svg">
<path d="M175.002 2.69562C175.474 2.73581 175.946 2.776 176.433 2.81741C179.678 3.11075 179.678 3.11075 180.86 3.70163C180.86 4.22517 180.86 4.74872 180.86 5.28812C176.402 5.40598 172.015 5.07201 167.579 4.67029C134.156 1.69823 100.115 1.51038 66.6326 3.70163C66.1076 3.73504 65.5826 3.76844 65.0417 3.80285C51.5944 4.66002 38.2004 5.82305 24.822 7.4365C24.0075 7.53469 24.0075 7.53469 23.1765 7.63487C18.7075 8.17909 14.2404 8.72378 9.79808 9.4586C9.33864 9.53459 8.8792 9.61057 8.40583 9.68886C7.5468 9.83377 6.68852 9.98311 5.83121 10.1379C3.7402 10.4952 2.05094 10.6478 0 10.0476C0.174514 9.52406 0.349028 9.00051 0.52883 8.46111C47.1097 -0.141419 95.713 -1.67044 175.002 2.69562Z" fill="#B812FF"/>
</svg>
