<svg width="33" height="32" viewBox="0 0 33 32" fill="none" xmlns="http://www.w3.org/2000/svg">
<path d="M4.16992 28V20H6.83659V23.4667L10.9699 19.3333L12.8366 21.2L8.70326 25.3333H12.1699V28H4.16992ZM20.1699 28V25.3333H23.6366L19.5033 21.2L21.3699 19.3333L25.5033 23.4667V20H28.1699V28H20.1699ZM10.9699 12.6667L6.83659 8.53333V12H4.16992V4H12.1699V6.66667H8.70326L12.8366 10.8L10.9699 12.6667ZM21.3699 12.6667L19.5033 10.8L23.6366 6.66667H20.1699V4H28.1699V12H25.5033V8.53333L21.3699 12.6667ZM16.1699 18.6667C15.4366 18.6667 14.8088 18.4056 14.2866 17.8833C13.7644 17.3611 13.5033 16.7333 13.5033 16C13.5033 15.2667 13.7644 14.6389 14.2866 14.1167C14.8088 13.5944 15.4366 13.3333 16.1699 13.3333C16.9033 13.3333 17.531 13.5944 18.0533 14.1167C18.5755 14.6389 18.8366 15.2667 18.8366 16C18.8366 16.7333 18.5755 17.3611 18.0533 17.8833C17.531 18.4056 16.9033 18.6667 16.1699 18.6667Z" fill="white"/>
</svg>
