<svg width="34" height="38" viewBox="0 0 34 38" fill="none" xmlns="http://www.w3.org/2000/svg">
<g clip-path="url(#clip0_1594_22581)">
<path d="M25.4974 9.66602H8.4974C6.93259 9.66602 5.66406 10.9345 5.66406 12.4993V29.4993C5.66406 31.0642 6.93259 32.3327 8.4974 32.3327H25.4974C27.0622 32.3327 28.3307 31.0642 28.3307 29.4993V12.4993C28.3307 10.9345 27.0622 9.66602 25.4974 9.66602Z" stroke="#B812FF" stroke-width="2" stroke-linecap="round" stroke-linejoin="round"/>
<path d="M21.25 16.75H12.75V25.25H21.25V16.75Z" stroke="#B812FF" stroke-width="2" stroke-linecap="round" stroke-linejoin="round"/>
<path d="M12.75 5.41699V9.66699" stroke="#B812FF" stroke-width="2" stroke-linecap="round" stroke-linejoin="round"/>
<path d="M21.25 5.41699V9.66699" stroke="#B812FF" stroke-width="2" stroke-linecap="round" stroke-linejoin="round"/>
<path d="M12.75 32.333V36.583" stroke="#B812FF" stroke-width="2" stroke-linecap="round" stroke-linejoin="round"/>
<path d="M21.25 32.333V36.583" stroke="#B812FF" stroke-width="2" stroke-linecap="round" stroke-linejoin="round"/>
<path d="M28.3359 16.75H32.5859" stroke="#B812FF" stroke-width="2" stroke-linecap="round" stroke-linejoin="round"/>
<path d="M28.3359 23.834H32.5859" stroke="#B812FF" stroke-width="2" stroke-linecap="round" stroke-linejoin="round"/>
<path d="M1.42188 16.75H5.67187" stroke="#B812FF" stroke-width="2" stroke-linecap="round" stroke-linejoin="round"/>
<path d="M1.42188 23.834H5.67187" stroke="#B812FF" stroke-width="2" stroke-linecap="round" stroke-linejoin="round"/>
</g>
<defs>
<clipPath id="clip0_1594_22581">
<rect width="34" height="34" fill="white" transform="translate(0 4)"/>
</clipPath>
</defs>
</svg>
