<svg width="22" height="23" viewBox="0 0 22 23" fill="none" xmlns="http://www.w3.org/2000/svg">
<path d="M10.9997 11.6C9.53301 11.6 8.27745 11.0778 7.23301 10.0333C6.18856 8.98889 5.66634 7.73333 5.66634 6.26667C5.66634 4.8 6.18856 3.54445 7.23301 2.5C8.27745 1.45556 9.53301 0.933334 10.9997 0.933334C12.4663 0.933334 13.7219 1.45556 14.7663 2.5C15.8108 3.54445 16.333 4.8 16.333 6.26667C16.333 7.73333 15.8108 8.98889 14.7663 10.0333C13.7219 11.0778 12.4663 11.6 10.9997 11.6ZM0.333008 22.2667V18.5333C0.333008 17.7778 0.527452 17.0833 0.916341 16.45C1.30523 15.8167 1.8219 15.3333 2.46634 15C3.84412 14.3111 5.24412 13.7944 6.66634 13.45C8.08856 13.1056 9.53301 12.9333 10.9997 12.9333C12.4663 12.9333 13.9108 13.1056 15.333 13.45C16.7552 13.7944 18.1552 14.3111 19.533 15C20.1775 15.3333 20.6941 15.8167 21.083 16.45C21.4719 17.0833 21.6663 17.7778 21.6663 18.5333V22.2667H0.333008ZM2.99967 19.6H18.9997V18.5333C18.9997 18.2889 18.9386 18.0667 18.8163 17.8667C18.6941 17.6667 18.533 17.5111 18.333 17.4C17.133 16.8 15.9219 16.35 14.6997 16.05C13.4775 15.75 12.2441 15.6 10.9997 15.6C9.75523 15.6 8.5219 15.75 7.29967 16.05C6.07745 16.35 4.86634 16.8 3.66634 17.4C3.46634 17.5111 3.30523 17.6667 3.18301 17.8667C3.06079 18.0667 2.99967 18.2889 2.99967 18.5333V19.6ZM10.9997 8.93333C11.733 8.93333 12.3608 8.67222 12.883 8.15C13.4052 7.62778 13.6663 7 13.6663 6.26667C13.6663 5.53333 13.4052 4.90556 12.883 4.38333C12.3608 3.86111 11.733 3.6 10.9997 3.6C10.2663 3.6 9.63856 3.86111 9.11634 4.38333C8.59412 4.90556 8.33301 5.53333 8.33301 6.26667C8.33301 7 8.59412 7.62778 9.11634 8.15C9.63856 8.67222 10.2663 8.93333 10.9997 8.93333Z" fill="#C7AEFF"/>
</svg>
