<svg width="1430" height="839" viewBox="0 0 1430 839" fill="none" xmlns="http://www.w3.org/2000/svg">
<g opacity="0.3">
<mask id="mask0_1_4823" style="mask-type:luminance" maskUnits="userSpaceOnUse" x="0" y="0" width="1430" height="839">
<path d="M1429.34 838.392H0V0H1429.34V838.392Z" fill="white"/>
</mask>
<g mask="url(#mask0_1_4823)">
<path d="M1293.56 206.519C1293.56 208.823 1291.65 210.744 1289.17 210.744C1286.89 210.744 1284.98 208.823 1284.98 206.519C1284.98 204.023 1286.89 202.104 1289.17 202.104C1291.65 202.104 1293.56 204.023 1293.56 206.519Z" fill="#AFF0E5" stroke="#A588FF"/>
<path d="M1231.23 467.256C1231.23 469.56 1229.33 471.48 1227.04 471.48C1224.75 471.48 1222.66 469.56 1222.66 467.256C1222.66 464.952 1224.75 462.84 1227.04 462.84C1229.33 462.84 1231.23 464.952 1231.23 467.256Z" fill="#AFF0E5" stroke="#A588FF"/>
<path d="M1035.7 716.472C1035.7 718.776 1033.79 720.696 1031.32 720.696C1029.03 720.696 1027.12 718.776 1027.12 716.472C1027.12 714.168 1029.03 712.248 1031.32 712.248C1033.79 712.248 1035.7 714.168 1035.7 716.472Z" fill="#AFF0E5" stroke="#A588FF"/>
<g style="mix-blend-mode:multiply" opacity="0.8">
<path d="M1031.31 705.068C1037.7 705.068 1042.63 710.212 1042.63 716.473C1042.63 722.733 1037.7 727.876 1031.31 727.876C1025.11 727.876 1020 722.728 1020 716.473C1020 710.217 1025.11 705.069 1031.31 705.068Z" fill="#0066FF" style="mix-blend-mode:multiply"/>
<path d="M1031.31 705.068C1037.7 705.068 1042.63 710.212 1042.63 716.473C1042.63 722.733 1037.7 727.876 1031.31 727.876C1025.11 727.876 1020 722.728 1020 716.473C1020 710.217 1025.11 705.069 1031.31 705.068Z" stroke="#A588FF"/>
</g>
<path d="M1035.7 680.953C1035.7 683.257 1033.79 685.177 1031.32 685.177C1029.03 685.177 1027.12 683.257 1027.12 680.953C1027.12 678.649 1029.03 676.537 1031.32 676.537C1033.79 676.537 1035.7 678.649 1035.7 680.953Z" fill="#AFF0E5" stroke="#A588FF"/>
<g style="mix-blend-mode:multiply" opacity="0.8">
<path d="M1031.31 669.547C1037.7 669.547 1042.63 674.691 1042.63 680.951C1042.63 687.212 1037.7 692.354 1031.31 692.354C1025.11 692.354 1020 687.206 1020 680.951C1020 674.696 1025.11 669.547 1031.31 669.547Z" fill="#0066FF" style="mix-blend-mode:multiply"/>
<path d="M1031.31 669.547C1037.7 669.547 1042.63 674.691 1042.63 680.951C1042.63 687.212 1037.7 692.354 1031.31 692.354C1025.11 692.354 1020 687.206 1020 680.951C1020 674.696 1025.11 669.547 1031.31 669.547Z" stroke="#A588FF"/>
</g>
<path d="M1035.7 751.992C1035.7 754.296 1033.79 756.216 1031.32 756.216C1029.03 756.216 1027.12 754.296 1027.12 751.992C1027.12 749.688 1029.03 747.768 1031.32 747.768C1033.79 747.768 1035.7 749.688 1035.7 751.992Z" fill="#AFF0E5" stroke="#A588FF"/>
<g style="mix-blend-mode:multiply" opacity="0.8">
<path d="M1031.31 740.588C1037.7 740.588 1042.63 745.732 1042.63 751.992C1042.63 758.253 1037.7 763.396 1031.31 763.396C1025.11 763.395 1020 758.247 1020 751.992C1020 745.737 1025.11 740.588 1031.31 740.588Z" fill="#0066FF" style="mix-blend-mode:multiply"/>
<path d="M1031.31 740.588C1037.7 740.588 1042.63 745.732 1042.63 751.992C1042.63 758.253 1037.7 763.396 1031.31 763.396C1025.11 763.395 1020 758.247 1020 751.992C1020 745.737 1025.11 740.588 1031.31 740.588Z" stroke="#A588FF"/>
</g>
<path d="M135.784 510.263C135.784 507.959 137.69 506.039 140.167 506.039C142.454 506.039 144.36 507.959 144.36 510.263C144.36 512.759 142.454 514.679 140.167 514.679C137.69 514.679 135.784 512.759 135.784 510.263Z" fill="#AFF0E5" stroke="#A588FF"/>
<path d="M362.959 620.472C362.959 618.168 364.865 616.248 367.342 616.248C369.629 616.248 371.535 618.168 371.535 620.472C371.535 622.968 369.629 624.888 367.152 624.888C364.865 624.888 362.959 622.968 362.959 620.472Z" fill="#AFF0E5" stroke="#A588FF"/>
<g style="mix-blend-mode:multiply" opacity="0.8">
<path d="M367.146 609.068C373.532 609.068 378.463 614.212 378.463 620.473C378.463 626.733 373.532 631.876 367.146 631.876C360.957 631.876 356.022 626.739 356.021 620.473C356.021 614.207 360.957 609.069 367.146 609.068Z" fill="#0066FF" style="mix-blend-mode:multiply"/>
<path d="M367.146 609.068C373.532 609.068 378.463 614.212 378.463 620.473C378.463 626.733 373.532 631.876 367.146 631.876C360.957 631.876 356.022 626.739 356.021 620.473C356.021 614.207 360.957 609.069 367.146 609.068Z" stroke="#A588FF"/>
</g>
<path d="M198.104 249.529C198.104 247.225 200.01 245.305 202.297 245.305C204.584 245.305 206.49 247.225 206.49 249.529C206.49 251.833 204.584 253.945 202.297 253.945C200.01 253.945 198.104 251.833 198.104 249.529Z" fill="#AFF0E5" stroke="#A588FF"/>
<g style="mix-blend-mode:multiply" opacity="0.8">
<path d="M202.296 238.123C208.496 238.123 213.612 243.272 213.612 249.527C213.612 255.783 208.496 260.931 202.296 260.931C196.096 260.93 190.981 255.782 190.98 249.527C190.98 243.272 196.096 238.123 202.296 238.123Z" fill="#0066FF" style="mix-blend-mode:multiply"/>
<path d="M202.296 238.123C208.496 238.123 213.612 243.272 213.612 249.527C213.612 255.783 208.496 260.931 202.296 260.931C196.096 260.93 190.981 255.782 190.98 249.527C190.98 243.272 196.096 238.123 202.296 238.123Z" stroke="#A588FF"/>
</g>
<path d="M393.637 0.311893C393.637 -1.99211 395.542 -3.91211 398.02 -3.91211C400.307 -3.91211 402.213 -1.99211 402.213 0.311893C402.213 2.61589 400.307 4.53589 398.02 4.53589C395.542 4.53589 393.637 2.61589 393.637 0.311893Z" fill="#AFF0E5" stroke="#A588FF"/>
<path d="M393.637 35.8314C393.637 33.5274 395.542 31.6074 398.02 31.6074C400.307 31.6074 402.213 33.5274 402.213 35.8314C402.213 38.1354 400.307 40.2474 398.02 40.2474C395.542 40.2474 393.637 38.1354 393.637 35.8314Z" fill="#AFF0E5" stroke="#A588FF"/>
<g style="mix-blend-mode:soft-light">
<path d="M1324.8 9.64453C1326.81 9.64453 1328.5 11.337 1328.5 13.3682C1328.5 15.6062 1326.8 17.2842 1324.8 17.2842C1322.61 17.284 1320.92 15.5914 1320.92 13.3682C1320.92 11.3515 1322.59 9.64472 1324.8 9.64453Z" fill="white" stroke="#A588FF"/>
<path d="M1288.02 303.787C1290.02 303.787 1291.72 305.465 1291.72 307.703C1291.72 309.734 1290.03 311.427 1288.02 311.427C1285.99 311.427 1284.14 309.706 1284.14 307.703C1284.14 305.494 1286 303.787 1288.02 303.787Z" fill="white" stroke="#A588FF"/>
<path d="M1037.6 91.4355C1039.6 91.4358 1041.29 93.1137 1041.29 95.3516C1041.29 97.3828 1039.61 99.075 1037.6 99.0752C1035.39 99.0752 1033.72 97.3685 1033.72 95.3516C1033.72 93.1282 1035.4 91.4355 1037.6 91.4355Z" fill="white" stroke="#A588FF"/>
<path d="M1049.8 91.4355C1051.79 91.4358 1053.49 93.1137 1053.49 95.3516C1053.49 97.3828 1051.81 99.0749 1049.8 99.0752C1047.79 99.0752 1046.11 97.3829 1046.11 95.3516C1046.11 93.1136 1047.81 91.4355 1049.8 91.4355Z" fill="white" stroke="#A588FF"/>
<path d="M1361.97 183.02C1363.98 183.02 1365.66 184.712 1365.66 186.743C1365.66 188.981 1363.96 190.659 1361.97 190.659C1359.95 190.659 1358.09 188.952 1358.09 186.743C1358.09 184.74 1359.93 183.02 1361.97 183.02Z" fill="white" stroke="#A588FF"/>
<path d="M1227.04 244.844C1229.05 244.844 1230.73 246.536 1230.73 248.567C1230.73 250.628 1229.02 252.483 1227.04 252.483C1225.03 252.483 1223.16 250.599 1223.16 248.567C1223.16 246.564 1225 244.844 1227.04 244.844Z" fill="white" stroke="#A588FF"/>
<path d="M714.57 28.2676C716.768 28.2676 718.454 29.9602 718.454 32.1836C718.454 34.2005 716.783 35.9072 714.57 35.9072C712.563 35.907 710.878 34.2148 710.878 32.1836C710.878 29.9457 712.577 28.2678 714.57 28.2676Z" fill="white" stroke="#A588FF"/>
<path d="M1324.8 697.58C1326.8 697.58 1328.5 699.258 1328.5 701.496C1328.5 703.527 1326.81 705.22 1324.8 705.22C1322.59 705.22 1320.92 703.513 1320.92 701.496C1320.92 699.273 1322.61 697.58 1324.8 697.58Z" fill="white" stroke="#A588FF"/>
<path d="M1288.02 403.436C1290.03 403.436 1291.72 405.128 1291.72 407.159C1291.72 409.397 1290.02 411.075 1288.02 411.075C1286 411.075 1284.14 409.369 1284.14 407.159C1284.14 405.156 1285.99 403.436 1288.02 403.436Z" fill="white" stroke="#A588FF"/>
<path d="M1289.17 505.58C1291.39 505.58 1293.06 507.287 1293.06 509.304C1293.06 511.527 1291.37 513.219 1289.17 513.22C1287.18 513.22 1285.48 511.542 1285.48 509.304C1285.48 507.273 1287.17 505.58 1289.17 505.58Z" fill="white" stroke="#A588FF"/>
<path d="M1361.97 524.203C1363.96 524.203 1365.66 525.881 1365.66 528.119C1365.66 530.15 1363.98 531.843 1361.97 531.843C1359.93 531.843 1358.09 530.122 1358.09 528.119C1358.09 525.91 1359.95 524.203 1361.97 524.203Z" fill="white" stroke="#A588FF"/>
<path d="M967.092 49.5801C969.289 49.5803 970.975 51.2729 970.975 53.4961C970.975 55.5129 969.304 57.2195 967.092 57.2197C965.084 57.2197 963.398 55.5274 963.398 53.4961C963.398 51.2581 965.099 49.5801 967.092 49.5801Z" fill="white" stroke="#A588FF"/>
<path d="M939.497 28.6484C941.678 28.4807 943.368 29.9846 943.722 32.0459C943.882 34.259 942.187 36.1241 940.177 36.293C938.173 36.4612 936.313 34.9471 936.143 32.7217V32.7178C935.974 30.6756 937.499 28.8172 939.498 28.6494L939.497 28.6484Z" fill="white" stroke="#A588FF"/>
<path d="M910.23 10.2041C912.195 9.70944 914.229 11.2007 914.569 13.2568C914.909 15.3111 913.543 17.3391 911.55 17.6738C909.583 18.0039 907.63 16.7289 907.207 14.8164L907.171 14.6299C906.832 12.3905 908.191 10.5479 910.19 10.2119L910.211 10.209L910.23 10.2041Z" fill="white" stroke="#A588FF"/>
<path d="M879.353 -5.73145C881.395 -6.24564 883.582 -5.03599 884.081 -3.02441C884.589 -0.977824 883.405 1.04844 881.395 1.55469L881.376 1.55957L881.357 1.56543C879.361 2.23567 877.361 1.07397 876.856 -0.960938L876.852 -0.979492L876.846 -0.998047C876.18 -3.0115 877.522 -5.22181 879.353 -5.73145Z" fill="white" stroke="#A588FF"/>
<path d="M714.57 678.955C716.783 678.955 718.454 680.662 718.454 682.679C718.454 684.902 716.768 686.595 714.57 686.595C712.578 686.595 710.878 684.917 710.878 682.679C710.878 680.648 712.563 678.955 714.57 678.955Z" fill="white" stroke="#A588FF"/>
<path d="M104.528 697.58C106.726 697.58 108.412 699.273 108.412 701.496C108.412 703.513 106.741 705.22 104.528 705.22C102.521 705.22 100.836 703.527 100.836 701.496C100.836 699.258 102.536 697.58 104.528 697.58Z" fill="white" stroke="#A588FF"/>
<path d="M141.312 403.436C143.32 403.436 145.006 405.128 145.006 407.159C145.006 409.397 143.305 411.075 141.312 411.075C139.32 411.075 137.62 409.397 137.62 407.159C137.62 405.128 139.305 403.436 141.312 403.436Z" fill="white" stroke="#A588FF"/>
<path d="M391.732 615.787C393.945 615.787 395.616 617.494 395.616 619.511C395.616 621.734 393.93 623.427 391.732 623.427C389.74 623.427 388.04 621.749 388.04 619.511C388.04 617.48 389.725 615.787 391.732 615.787Z" fill="white" stroke="#A588FF"/>
<path d="M379.535 615.787C381.542 615.787 383.228 617.48 383.229 619.511C383.229 621.749 381.528 623.427 379.535 623.427C377.542 623.427 375.843 621.749 375.843 619.511C375.843 617.48 377.528 615.787 379.535 615.787Z" fill="white" stroke="#A588FF"/>
<path d="M67.3662 524.203C69.3592 524.203 71.0596 525.881 71.0596 528.119C71.0595 530.15 69.3735 531.843 67.3662 531.843C65.3591 531.843 63.6738 530.15 63.6738 528.119C63.6738 525.881 65.3734 524.203 67.3662 524.203Z" fill="white" stroke="#A588FF"/>
<path d="M202.298 462.379C204.277 462.379 205.991 464.234 205.991 466.295C205.991 468.326 204.305 470.019 202.298 470.019C200.291 470.018 198.605 468.326 198.605 466.295C198.605 464.235 200.319 462.379 202.298 462.379Z" fill="white" stroke="#A588FF"/>
<path d="M104.528 9.64453C106.741 9.64453 108.412 11.3514 108.412 13.3682C108.412 15.5915 106.726 17.2842 104.528 17.2842C102.536 17.284 100.836 15.606 100.836 13.3682C100.836 11.3371 102.521 9.64474 104.528 9.64453Z" fill="white" stroke="#A588FF"/>
<path d="M141.312 303.787C143.305 303.787 145.006 305.465 145.006 307.703C145.006 309.734 143.32 311.427 141.312 311.427C139.305 311.427 137.62 309.734 137.62 307.703C137.62 305.465 139.32 303.787 141.312 303.787Z" fill="white" stroke="#A588FF"/>
<path d="M140.168 201.645C142.161 201.645 143.861 203.323 143.861 205.561C143.861 207.592 142.175 209.284 140.168 209.284C137.956 209.284 136.285 207.577 136.285 205.561C136.285 203.337 137.97 201.645 140.168 201.645Z" fill="white" stroke="#A588FF"/>
<path d="M67.3662 183.02C69.3734 183.02 71.0594 184.712 71.0596 186.743C71.0596 188.981 69.3592 190.659 67.3662 190.659C65.3734 190.659 63.6738 188.981 63.6738 186.743C63.674 184.712 65.3592 183.02 67.3662 183.02Z" fill="white" stroke="#A588FF"/>
<path d="M462.245 657.645C464.252 657.645 465.938 659.337 465.938 661.368C465.938 663.606 464.238 665.284 462.245 665.284C460.047 665.284 458.362 663.591 458.362 661.368C458.362 659.352 460.033 657.645 462.245 657.645Z" fill="white" stroke="#A588FF"/>
<path d="M489.16 678.569C491.164 678.401 493.023 679.916 493.193 682.142V682.145C493.357 684.123 491.931 685.929 490.024 686.192L489.839 686.213C487.684 686.378 485.895 684.932 485.635 683.017L485.614 682.83C485.445 680.594 486.972 678.739 489.157 678.569H489.16Z" fill="white" stroke="#A588FF"/>
<path d="M517.79 697.188C519.756 696.858 521.709 698.134 522.133 700.046L522.169 700.233C522.508 702.473 521.149 704.315 519.149 704.65L519.134 704.653L519.119 704.656C516.964 705.157 515.112 703.668 514.771 701.605C514.431 699.551 515.797 697.523 517.79 697.188Z" fill="white" stroke="#A588FF"/>
<path d="M547.973 713.299C549.969 712.629 551.969 713.79 552.474 715.825L552.479 715.844L552.484 715.861C553.148 717.867 551.816 720.085 549.787 720.596C547.765 721.105 545.753 719.919 545.249 717.888C544.741 715.841 545.926 713.816 547.936 713.31L547.954 713.305L547.973 713.299Z" fill="white" stroke="#A588FF"/>
<path d="M579.231 726.545C581.276 725.858 583.454 726.895 584.123 728.724H584.124C584.81 730.796 583.767 732.999 581.948 733.665C579.907 734.343 577.734 733.306 577.068 731.479C576.386 729.412 577.421 727.216 579.231 726.545Z" fill="white" stroke="#A588FF"/>
<path d="M1037.6 357.432C1037.6 537.144 892.952 682.68 714.57 682.68C536.379 682.68 391.729 537.144 391.729 357.432C391.729 177.72 536.379 32.1836 714.57 32.1836C892.952 32.1836 1037.6 177.72 1037.6 357.432Z" stroke="#A588FF"/>
<path d="M1037.6 357.432H1429.24" stroke="#A588FF"/>
<path d="M1032.84 307.703H1288.02" stroke="#A588FF"/>
<path d="M1098.97 307.703L1200.36 205.559H1289.17" stroke="#A588FF"/>
<path d="M993.581 193.079L1171.96 13.3672H1307.66" stroke="#A588FF"/>
<path d="M1316.23 13.3666C1316.23 18.1666 1312.41 22.0066 1307.65 22.0066C1302.89 22.0066 1299.07 18.1666 1299.07 13.3666C1299.07 8.56656 1302.89 4.72656 1307.65 4.72656C1312.41 4.72656 1316.23 8.56656 1316.23 13.3666Z" stroke="#A588FF"/>
<path d="M1129.08 307.704L1187.59 248.568H1227.04" stroke="#A588FF"/>
<path d="M1296.6 13.3666C1296.6 18.1666 1292.79 22.0066 1288.03 22.0066C1283.26 22.0066 1279.45 18.1666 1279.45 13.3666C1279.45 8.56656 1283.26 4.72656 1288.03 4.72656C1292.79 4.72656 1296.6 8.56656 1296.6 13.3666Z" stroke="#A588FF"/>
<path d="M1276.78 13.3666C1276.78 18.1666 1272.97 22.0066 1268.39 22.0066C1263.63 22.0066 1259.82 18.1666 1259.82 13.3666C1259.82 8.56656 1263.63 4.72656 1268.39 4.72656C1272.97 4.72656 1276.78 8.56656 1276.78 13.3666Z" stroke="#A588FF"/>
<path d="M1037.6 362.424H1427.53" stroke="#A588FF"/>
<path d="M1071.72 307.704L1190.45 186.744H1353.39" stroke="#A588FF"/>
<path d="M1370.54 186.745C1370.54 191.545 1366.73 195.385 1361.97 195.385C1357.2 195.385 1353.39 191.545 1353.39 186.745C1353.39 182.137 1357.2 178.297 1361.97 178.297C1366.73 178.297 1370.54 182.137 1370.54 186.745Z" stroke="#A588FF"/>
<path d="M723.148 32.183C723.148 36.983 719.337 40.823 714.572 40.823C709.998 40.823 706.187 36.983 706.187 32.183C706.187 27.383 709.998 23.543 714.572 23.543C719.337 23.543 723.148 27.383 723.148 32.183Z" stroke="#A588FF"/>
<path d="M1003.49 95.3509C1003.49 100.151 999.678 103.991 994.914 103.991C990.149 103.991 986.338 100.151 986.338 95.3509C986.338 90.5509 990.149 86.7109 994.914 86.7109C999.678 86.7109 1003.49 90.5509 1003.49 95.3509Z" stroke="#A588FF"/>
<path d="M971.666 95.3516H1018.17" stroke="#A588FF"/>
<path d="M994.91 118.776V71.9277" stroke="#A588FF"/>
<path d="M1337.57 307.704C1337.57 312.312 1333.76 316.344 1329 316.344C1324.23 316.344 1320.42 312.312 1320.42 307.704C1320.42 302.904 1324.23 299.064 1329 299.064C1333.76 299.064 1337.57 302.904 1337.57 307.704Z" stroke="#A588FF"/>
<path d="M1305.75 307.703H1352.25" stroke="#A588FF"/>
<path d="M1329 330.935V284.279" stroke="#A588FF"/>
<path d="M1110.02 75.7676H1429.24" stroke="#A588FF"/>
<path d="M1100.49 85.3672H1429.24" stroke="#A588FF"/>
<path d="M1090.97 94.9668H1429.25" stroke="#A588FF"/>
<path d="M1032.84 407.16H1288.02" stroke="#A588FF"/>
<path d="M1098.97 407.16L1200.36 509.304H1289.17" stroke="#A588FF"/>
<path d="M993.581 521.783L1171.96 701.495H1307.66" stroke="#A588FF"/>
<path d="M1316.23 701.495C1316.23 696.695 1312.41 692.855 1307.65 692.855C1302.89 692.855 1299.07 696.695 1299.07 701.495C1299.07 706.295 1302.89 710.135 1307.65 710.135C1312.41 710.135 1316.23 706.295 1316.23 701.495Z" stroke="#A588FF"/>
<path d="M1129.08 407.16L1187.59 466.296H1227.04" stroke="#A588FF"/>
<path d="M1296.6 701.495C1296.6 696.695 1292.79 692.855 1288.03 692.855C1283.26 692.855 1279.45 696.695 1279.45 701.495C1279.45 706.295 1283.26 710.135 1288.03 710.135C1292.79 710.135 1296.6 706.295 1296.6 701.495Z" stroke="#A588FF"/>
<path d="M1276.78 701.495C1276.78 696.695 1272.97 692.855 1268.39 692.855C1263.63 692.855 1259.82 696.695 1259.82 701.495C1259.82 706.295 1263.63 710.135 1268.39 710.135C1272.97 710.135 1276.78 706.295 1276.78 701.495Z" stroke="#A588FF"/>
<path d="M1071.72 407.16L1190.45 528.12H1353.39" stroke="#A588FF"/>
<path d="M1370.54 528.119C1370.54 523.319 1366.73 519.479 1361.97 519.479C1357.2 519.479 1353.39 523.319 1353.39 528.119C1353.39 532.727 1357.2 536.567 1361.97 536.567C1366.73 536.567 1370.54 532.727 1370.54 528.119Z" stroke="#A588FF"/>
<path d="M1080.29 715.511C1080.29 710.711 1076.48 706.871 1071.72 706.871C1066.95 706.871 1063.14 710.711 1063.14 715.511C1063.14 720.311 1066.95 724.151 1071.72 724.151C1076.48 724.151 1080.29 720.311 1080.29 715.511Z" stroke="#A588FF"/>
<path d="M1048.46 715.512H1094.97" stroke="#A588FF"/>
<path d="M1071.72 692.088V738.936" stroke="#A588FF"/>
<path d="M1110.02 639.096H1429.24" stroke="#A588FF"/>
<path d="M1100.49 629.496H1429.24" stroke="#A588FF"/>
<path d="M1090.97 619.896H1429.25" stroke="#A588FF"/>
<path d="M916.962 103.992L967.084 53.4961" stroke="#A588FF"/>
<path d="M894.287 87.097L939.836 32.377" stroke="#A588FF"/>
<path d="M870.272 72.3114L910.866 13.9434" stroke="#A588FF"/>
<path d="M844.931 59.8318L880.378 -1.99219" stroke="#A588FF"/>
<path d="M818.818 49.4638L848.739 -15.2402" stroke="#A588FF"/>
<path d="M714.572 32.1837V-39.2403L743.731 -68.6164V-122.568" stroke="#A588FF"/>
<path d="M723.148 682.679C723.148 677.879 719.337 674.039 714.572 674.039C709.998 674.039 706.187 677.879 706.187 682.679C706.187 687.479 709.998 691.319 714.572 691.319C719.337 691.319 723.148 687.479 723.148 682.679Z" stroke="#A588FF"/>
<path d="M941.174 589.176L1031.32 679.992V751.032" stroke="#A588FF" stroke-linecap="square"/>
<path d="M714.572 -38.2812C810.815 -38.2812 898.862 -3.33725 967.089 54.4548" stroke="#A588FF"/>
<path d="M950.128 674.039C884.569 723.767 803.001 753.143 714.572 753.143" stroke="#A588FF"/>
<path d="M1090.96 471.096C1083.53 495.864 1073.81 519.672 1062.19 541.944" stroke="#A588FF"/>
<path d="M391.731 357.432H-0.0996094" stroke="#A588FF"/>
<path d="M396.495 407.16H141.31" stroke="#A588FF"/>
<path d="M330.367 407.16L228.979 509.304H140.169" stroke="#A588FF"/>
<path d="M435.757 521.783L257.375 701.495H121.683" stroke="#A588FF"/>
<path d="M113.109 701.495C113.109 696.695 116.921 692.855 121.685 692.855C126.45 692.855 130.261 696.695 130.261 701.495C130.261 706.295 126.45 710.135 121.685 710.135C116.921 710.135 113.109 706.295 113.109 701.495Z" stroke="#A588FF"/>
<path d="M300.249 407.16L241.55 466.296H202.291" stroke="#A588FF"/>
<path d="M132.732 701.495C132.732 696.695 136.544 692.855 141.308 692.855C146.073 692.855 149.885 696.695 149.885 701.495C149.885 706.295 146.073 710.135 141.308 710.135C136.544 710.135 132.732 706.295 132.732 701.495Z" stroke="#A588FF"/>
<path d="M152.365 701.495C152.365 696.695 156.367 692.855 160.941 692.855C165.706 692.855 169.517 696.695 169.517 701.495C169.517 706.295 165.706 710.135 160.941 710.135C156.367 710.135 152.365 706.295 152.365 701.495Z" stroke="#A588FF"/>
<path d="M391.726 352.439H1.80176" stroke="#A588FF"/>
<path d="M357.616 407.16L238.886 528.12H75.9404" stroke="#A588FF"/>
<path d="M58.792 528.119C58.792 523.319 62.6036 519.479 67.368 519.479C72.1325 519.479 75.9441 523.319 75.9441 528.119C75.9441 532.727 72.1325 536.567 67.368 536.567C62.6036 536.567 58.792 532.727 58.792 528.119Z" stroke="#A588FF"/>
<path d="M425.845 619.511C425.845 614.711 429.656 610.871 434.421 610.871C439.185 610.871 442.997 614.711 442.997 619.511C442.997 624.311 439.185 628.151 434.421 628.151C429.656 628.151 425.845 624.311 425.845 619.511Z" stroke="#A588FF"/>
<path d="M457.674 619.512H411.173" stroke="#A588FF"/>
<path d="M434.422 596.088V642.936" stroke="#A588FF"/>
<path d="M91.7568 407.16C91.7568 402.552 95.5684 398.52 100.333 398.52C105.097 398.52 108.909 402.552 108.909 407.16C108.909 411.96 105.097 415.8 100.333 415.8C95.5684 415.8 91.7568 411.96 91.7568 407.16Z" stroke="#A588FF"/>
<path d="M123.588 407.16H77.0869" stroke="#A588FF"/>
<path d="M100.336 383.928V430.584" stroke="#A588FF"/>
<path d="M319.311 639.096H-0.0996094" stroke="#A588FF"/>
<path d="M328.84 629.496H-0.0996094" stroke="#A588FF"/>
<path d="M338.369 619.896H-0.0996094" stroke="#A588FF"/>
<path d="M396.495 307.703H141.31" stroke="#A588FF"/>
<path d="M330.367 307.703L228.979 205.559H140.169" stroke="#A588FF"/>
<path d="M435.757 193.079L257.375 13.3672H121.683" stroke="#A588FF"/>
<path d="M113.109 13.3666C113.109 18.1666 116.921 22.0066 121.685 22.0066C126.45 22.0066 130.261 18.1666 130.261 13.3666C130.261 8.56656 126.45 4.72656 121.685 4.72656C116.921 4.72656 113.109 8.56656 113.109 13.3666Z" stroke="#A588FF"/>
<path d="M300.249 307.704L241.55 248.568H202.291" stroke="#A588FF"/>
<path d="M132.732 13.3666C132.732 18.1666 136.544 22.0066 141.308 22.0066C146.073 22.0066 149.885 18.1666 149.885 13.3666C149.885 8.56656 146.073 4.72656 141.308 4.72656C136.544 4.72656 132.732 8.56656 132.732 13.3666Z" stroke="#A588FF"/>
<path d="M152.365 13.3666C152.365 18.1666 156.367 22.0066 160.941 22.0066C165.706 22.0066 169.517 18.1666 169.517 13.3666C169.517 8.56656 165.706 4.72656 160.941 4.72656C156.367 4.72656 152.365 8.56656 152.365 13.3666Z" stroke="#A588FF"/>
<path d="M357.616 307.704L238.886 186.744H75.9404" stroke="#A588FF"/>
<path d="M58.792 186.745C58.792 191.545 62.6036 195.385 67.368 195.385C72.1325 195.385 75.9441 191.545 75.9441 186.745C75.9441 182.137 72.1325 178.297 67.368 178.297C62.6036 178.297 58.792 182.137 58.792 186.745Z" stroke="#A588FF"/>
<path d="M319.311 75.7676H-0.0996094" stroke="#A588FF"/>
<path d="M328.84 85.3672H-0.0996094" stroke="#A588FF"/>
<path d="M338.369 94.9668H-0.0996094" stroke="#A588FF"/>
<path d="M512.368 610.871L462.246 661.367" stroke="#A588FF"/>
<path d="M535.046 627.768L489.497 682.488" stroke="#A588FF"/>
<path d="M559.058 642.551L518.465 700.919" stroke="#A588FF"/>
<path d="M584.405 655.031L548.957 716.855" stroke="#A588FF"/>
<path d="M610.513 665.4L580.592 730.104" stroke="#A588FF"/>
<path d="M488.164 125.688L398.02 34.8717V-36.1683L312.26 -122.568" stroke="#A588FF" stroke-linecap="square"/>
<path d="M714.573 753.144C618.521 753.144 530.473 718.2 462.246 660.408" stroke="#A588FF"/>
<path d="M479.21 40.8228C544.769 -8.90525 626.337 -38.2812 714.575 -38.2812" stroke="#A588FF"/>
<path d="M338.368 243.768C345.801 219 355.52 195.192 367.146 172.92" stroke="#A588FF"/>
</g>
<path d="M1324.8 10.6035C1326.81 10.6035 1328.5 12.296 1328.5 14.3271C1328.5 16.5652 1326.8 18.2432 1324.8 18.2432C1322.61 18.243 1320.92 16.5504 1320.92 14.3271C1320.92 12.3105 1322.59 10.6037 1324.8 10.6035Z" fill="white" stroke="#A588FF"/>
<path d="M1288.03 304.748C1290.02 304.748 1291.72 306.426 1291.72 308.664C1291.72 310.695 1290.03 312.387 1288.03 312.388C1285.99 312.388 1284.14 310.667 1284.14 308.664C1284.14 306.455 1286.01 304.748 1288.03 304.748Z" fill="white" stroke="#A588FF"/>
<path d="M1037.6 92.3965C1039.6 92.3967 1041.3 94.0746 1041.3 96.3125C1041.3 98.3437 1039.61 100.036 1037.6 100.036C1035.39 100.036 1033.72 98.3294 1033.72 96.3125C1033.72 94.0891 1035.41 92.3965 1037.6 92.3965Z" fill="white" stroke="#A588FF"/>
<path d="M1049.8 92.3965C1051.79 92.3968 1053.49 94.0746 1053.49 96.3125C1053.49 98.3437 1051.81 100.036 1049.8 100.036C1047.79 100.036 1046.11 98.3438 1046.11 96.3125C1046.11 94.0745 1047.81 92.3965 1049.8 92.3965Z" fill="white" stroke="#A588FF"/>
<path d="M1361.97 183.98C1363.98 183.98 1365.67 185.673 1365.67 187.704C1365.67 189.942 1363.97 191.62 1361.97 191.62C1359.95 191.62 1358.09 189.913 1358.09 187.704C1358.09 185.701 1359.94 183.981 1361.97 183.98Z" fill="white" stroke="#A588FF"/>
<path d="M1227.04 245.805C1229.05 245.805 1230.73 247.497 1230.73 249.528C1230.73 251.589 1229.02 253.444 1227.04 253.444C1225.03 253.444 1223.16 251.56 1223.16 249.528C1223.16 247.525 1225.01 245.805 1227.04 245.805Z" fill="white" stroke="#A588FF"/>
<path d="M714.575 29.2266C716.773 29.2266 718.459 30.9192 718.459 33.1426C718.459 35.1595 716.788 36.8662 714.575 36.8662C712.568 36.866 710.883 35.1738 710.883 33.1426C710.883 30.9047 712.582 29.2268 714.575 29.2266Z" fill="white" stroke="#A588FF"/>
<path d="M1324.8 698.539C1326.8 698.539 1328.5 700.217 1328.5 702.455C1328.5 704.486 1326.81 706.179 1324.8 706.179C1322.59 706.179 1320.92 704.472 1320.92 702.455C1320.92 700.232 1322.61 698.539 1324.8 698.539Z" fill="white" stroke="#A588FF"/>
<path d="M1288.03 404.396C1290.03 404.397 1291.72 406.089 1291.72 408.12C1291.72 410.358 1290.02 412.036 1288.03 412.036C1286.01 412.036 1284.14 410.329 1284.14 408.12C1284.14 406.117 1285.99 404.396 1288.03 404.396Z" fill="white" stroke="#A588FF"/>
<path d="M1289.17 506.539C1291.38 506.539 1293.06 508.246 1293.06 510.263C1293.06 512.486 1291.37 514.178 1289.17 514.179C1287.18 514.179 1285.48 512.501 1285.48 510.263C1285.48 508.232 1287.17 506.539 1289.17 506.539Z" fill="white" stroke="#A588FF"/>
<path d="M1361.97 525.164C1363.97 525.164 1365.67 526.842 1365.67 529.08C1365.67 531.111 1363.98 532.804 1361.97 532.804C1359.94 532.804 1358.09 531.083 1358.09 529.08C1358.09 526.871 1359.95 525.164 1361.97 525.164Z" fill="white" stroke="#A588FF"/>
<path d="M967.093 50.5391C969.29 50.5393 970.976 52.2319 970.976 54.4551C970.976 56.4719 969.305 58.1785 967.093 58.1787C965.085 58.1787 963.399 56.4864 963.399 54.4551C963.399 52.2171 965.1 50.5391 967.093 50.5391Z" fill="white" stroke="#A588FF"/>
<path d="M939.5 29.6074C941.681 29.4397 943.371 30.9436 943.725 33.0049C943.885 35.218 942.19 37.083 940.18 37.252C938.176 37.4202 936.316 35.9061 936.146 33.6807V33.6768C935.977 31.6346 937.502 29.7762 939.501 29.6084L939.5 29.6074Z" fill="white" stroke="#A588FF"/>
<path d="M910.229 11.165C912.194 10.6704 914.228 12.1616 914.568 14.2178C914.908 16.272 913.542 18.3001 911.549 18.6348C909.582 18.9649 907.629 17.6899 907.206 15.7773L907.17 15.5908C906.831 13.3514 908.19 11.5088 910.189 11.1729L910.21 11.1699L910.229 11.165Z" fill="white" stroke="#A588FF"/>
<path d="M879.354 -4.77051C881.397 -5.2847 883.584 -4.07505 884.083 -2.06348C884.591 -0.0168869 883.406 2.00938 881.396 2.51562L881.378 2.52051L881.359 2.52637C879.363 3.1966 877.363 2.03491 876.858 0L876.854 -0.0185547L876.848 -0.0371094C876.182 -2.05056 877.524 -4.26087 879.354 -4.77051Z" fill="white" stroke="#A588FF"/>
<path d="M714.575 679.916C716.788 679.916 718.459 681.623 718.459 683.64C718.459 685.863 716.773 687.556 714.575 687.556C712.582 687.555 710.883 685.878 710.883 683.64C710.883 681.609 712.568 679.916 714.575 679.916Z" fill="white" stroke="#A588FF"/>
<path d="M104.527 698.539C106.725 698.539 108.411 700.232 108.411 702.455C108.411 704.472 106.74 706.179 104.527 706.179C102.52 706.178 100.835 704.486 100.835 702.455C100.835 700.217 102.535 698.539 104.527 698.539Z" fill="white" stroke="#A588FF"/>
<path d="M141.313 404.396C143.321 404.396 145.007 406.089 145.007 408.12C145.007 410.358 143.306 412.036 141.313 412.036C139.321 412.036 137.621 410.358 137.621 408.12C137.621 406.089 139.306 404.397 141.313 404.396Z" fill="white" stroke="#A588FF"/>
<path d="M391.733 616.748C393.946 616.748 395.617 618.455 395.617 620.472C395.617 622.695 393.931 624.388 391.733 624.388C389.741 624.387 388.041 622.71 388.041 620.472C388.041 618.441 389.726 616.748 391.733 616.748Z" fill="white" stroke="#A588FF"/>
<path d="M379.534 616.748C381.541 616.748 383.227 618.44 383.228 620.472C383.228 622.71 381.527 624.388 379.534 624.388C377.541 624.388 375.842 622.71 375.842 620.472C375.842 618.441 377.527 616.748 379.534 616.748Z" fill="white" stroke="#A588FF"/>
<path d="M67.3652 525.164C69.3582 525.164 71.0586 526.842 71.0586 529.08C71.0586 531.111 69.3725 532.804 67.3652 532.804C65.3581 532.803 63.6729 531.111 63.6729 529.08C63.6729 526.842 65.3724 525.164 67.3652 525.164Z" fill="white" stroke="#A588FF"/>
<path d="M202.297 463.34C204.276 463.34 205.99 465.195 205.99 467.256C205.99 469.287 204.304 470.979 202.297 470.979C200.29 470.979 198.604 469.287 198.604 467.256C198.605 465.195 200.318 463.34 202.297 463.34Z" fill="white" stroke="#A588FF"/>
<path d="M104.527 10.6035C106.74 10.6035 108.411 12.3104 108.411 14.3271C108.411 16.5505 106.725 18.2432 104.527 18.2432C102.535 18.243 100.835 16.565 100.835 14.3271C100.835 12.2961 102.52 10.6037 104.527 10.6035Z" fill="white" stroke="#A588FF"/>
<path d="M141.313 304.748C143.306 304.748 145.007 306.426 145.007 308.664C145.007 310.695 143.321 312.388 141.313 312.388C139.306 312.388 137.621 310.695 137.621 308.664C137.621 306.426 139.321 304.748 141.313 304.748Z" fill="white" stroke="#A588FF"/>
<path d="M140.167 202.604C142.16 202.604 143.86 204.282 143.86 206.52C143.86 208.551 142.174 210.243 140.167 210.243C137.955 210.243 136.284 208.536 136.284 206.52C136.284 204.296 137.969 202.604 140.167 202.604Z" fill="white" stroke="#A588FF"/>
<path d="M67.3652 183.98C69.3724 183.98 71.0584 185.673 71.0586 187.704C71.0586 189.942 69.3582 191.62 67.3652 191.62C65.3724 191.62 63.6729 189.942 63.6729 187.704C63.6731 185.673 65.3582 183.981 67.3652 183.98Z" fill="white" stroke="#A588FF"/>
<path d="M462.244 658.604C464.251 658.604 465.937 660.296 465.938 662.327C465.938 664.565 464.237 666.243 462.244 666.243C460.046 666.243 458.361 664.55 458.361 662.327C458.362 660.311 460.032 658.604 462.244 658.604Z" fill="white" stroke="#A588FF"/>
<path d="M489.159 679.53C491.163 679.362 493.022 680.877 493.192 683.103V683.105C493.356 685.084 491.93 686.89 490.023 687.153L489.838 687.174C487.683 687.339 485.894 685.893 485.634 683.978L485.613 683.791C485.444 681.555 486.971 679.7 489.156 679.53H489.159Z" fill="white" stroke="#A588FF"/>
<path d="M517.789 698.149C519.755 697.819 521.708 699.094 522.132 701.007L522.168 701.194C522.507 703.434 521.148 705.276 519.148 705.611L519.133 705.614L519.118 705.617C516.964 706.118 515.111 704.629 514.77 702.566C514.43 700.512 515.796 698.484 517.789 698.149Z" fill="white" stroke="#A588FF"/>
<path d="M547.974 714.258C549.97 713.588 551.97 714.749 552.475 716.784L552.479 716.803L552.485 716.82C553.149 718.826 551.816 721.044 549.788 721.555C547.766 722.064 545.754 720.878 545.25 718.847C544.742 716.8 545.927 714.775 547.937 714.269L547.955 714.264L547.974 714.258Z" fill="white" stroke="#A588FF"/>
<path d="M579.23 727.506C581.275 726.819 583.453 727.856 584.122 729.685H584.123C584.809 731.757 583.766 733.96 581.947 734.626C579.906 735.304 577.733 734.267 577.067 732.44C576.385 730.373 577.42 728.177 579.23 727.506Z" fill="white" stroke="#A588FF"/>
<path d="M1037.61 358.393C1037.61 538.105 892.957 683.641 714.575 683.641C536.384 683.641 391.734 538.105 391.734 358.393C391.734 178.681 536.384 33.1445 714.575 33.1445C892.957 33.1445 1037.61 178.681 1037.61 358.393Z" stroke="#A588FF"/>
<path d="M1037.6 358.393H1429.24" stroke="#A588FF"/>
<path d="M1032.84 308.664H1288.03" stroke="#A588FF"/>
<path d="M1098.97 308.664L1200.36 206.52H1289.17" stroke="#A588FF"/>
<path d="M993.58 194.04L1171.96 14.3281H1307.65" stroke="#A588FF"/>
<path d="M1316.23 14.3275C1316.23 19.1275 1312.42 22.9675 1307.65 22.9675C1302.89 22.9675 1299.08 19.1275 1299.08 14.3275C1299.08 9.5275 1302.89 5.6875 1307.65 5.6875C1312.42 5.6875 1316.23 9.5275 1316.23 14.3275Z" stroke="#A588FF"/>
<path d="M1129.08 308.663L1187.59 249.527H1227.04" stroke="#A588FF"/>
<path d="M1296.6 14.3275C1296.6 19.1275 1292.79 22.9675 1288.02 22.9675C1283.26 22.9675 1279.45 19.1275 1279.45 14.3275C1279.45 9.5275 1283.26 5.6875 1288.02 5.6875C1292.79 5.6875 1296.6 9.5275 1296.6 14.3275Z" stroke="#A588FF"/>
<path d="M1276.78 14.3275C1276.78 19.1275 1272.97 22.9675 1268.39 22.9675C1263.63 22.9675 1259.82 19.1275 1259.82 14.3275C1259.82 9.5275 1263.63 5.6875 1268.39 5.6875C1272.97 5.6875 1276.78 9.5275 1276.78 14.3275Z" stroke="#A588FF"/>
<path d="M1037.6 363.385H1427.53" stroke="#A588FF"/>
<path d="M1071.72 308.663L1190.45 187.703H1353.4" stroke="#A588FF"/>
<path d="M1370.54 187.704C1370.54 192.504 1366.73 196.344 1361.97 196.344C1357.2 196.344 1353.39 192.504 1353.39 187.704C1353.39 183.096 1357.2 179.256 1361.97 179.256C1366.73 179.256 1370.54 183.096 1370.54 187.704Z" stroke="#A588FF"/>
<path d="M723.147 33.1439C723.147 37.9439 719.336 41.7839 714.571 41.7839C709.997 41.7839 706.186 37.9439 706.186 33.1439C706.186 28.3439 709.997 24.5039 714.571 24.5039C719.336 24.5039 723.147 28.3439 723.147 33.1439Z" stroke="#A588FF"/>
<path d="M1003.49 96.3119C1003.49 101.112 999.677 104.952 994.913 104.952C990.148 104.952 986.337 101.112 986.337 96.3119C986.337 91.5119 990.148 87.6719 994.913 87.6719C999.677 87.6719 1003.49 91.5119 1003.49 96.3119Z" stroke="#A588FF"/>
<path d="M971.665 96.3125H1018.17" stroke="#A588FF"/>
<path d="M994.913 119.735V72.8867" stroke="#A588FF"/>
<path d="M1337.57 308.663C1337.57 313.271 1333.76 317.303 1329 317.303C1324.23 317.303 1320.42 313.271 1320.42 308.663C1320.42 303.863 1324.23 300.023 1329 300.023C1333.76 300.023 1337.57 303.863 1337.57 308.663Z" stroke="#A588FF"/>
<path d="M1305.75 308.664H1352.25" stroke="#A588FF"/>
<path d="M1329 331.896V285.24" stroke="#A588FF"/>
<path d="M1110.03 76.7266H1429.25" stroke="#A588FF"/>
<path d="M1100.5 86.3281H1429.25" stroke="#A588FF"/>
<path d="M1090.97 95.9277H1429.24" stroke="#A588FF"/>
<path d="M1032.84 408.119H1288.03" stroke="#A588FF"/>
<path d="M1098.97 408.119L1200.36 510.263H1289.17" stroke="#A588FF"/>
<path d="M993.58 522.744L1171.96 702.456H1307.65" stroke="#A588FF"/>
<path d="M1316.23 702.456C1316.23 697.656 1312.42 693.816 1307.65 693.816C1302.89 693.816 1299.08 697.656 1299.08 702.456C1299.08 707.256 1302.89 711.096 1307.65 711.096C1312.42 711.096 1316.23 707.256 1316.23 702.456Z" stroke="#A588FF"/>
<path d="M1129.08 408.119L1187.59 467.255H1227.04" stroke="#A588FF"/>
<path d="M1296.6 702.456C1296.6 697.656 1292.79 693.816 1288.02 693.816C1283.26 693.816 1279.45 697.656 1279.45 702.456C1279.45 707.256 1283.26 711.096 1288.02 711.096C1292.79 711.096 1296.6 707.256 1296.6 702.456Z" stroke="#A588FF"/>
<path d="M1276.78 702.456C1276.78 697.656 1272.97 693.816 1268.39 693.816C1263.63 693.816 1259.82 697.656 1259.82 702.456C1259.82 707.256 1263.63 711.096 1268.39 711.096C1272.97 711.096 1276.78 707.256 1276.78 702.456Z" stroke="#A588FF"/>
<path d="M1071.72 408.119L1190.45 529.079H1353.4" stroke="#A588FF"/>
<path d="M1370.54 529.079C1370.54 524.279 1366.73 520.439 1361.97 520.439C1357.2 520.439 1353.39 524.279 1353.39 529.079C1353.39 533.687 1357.2 537.527 1361.97 537.527C1366.73 537.527 1370.54 533.687 1370.54 529.079Z" stroke="#A588FF"/>
<path d="M1080.3 716.472C1080.3 711.672 1076.49 707.832 1071.72 707.832C1066.96 707.832 1063.14 711.672 1063.14 716.472C1063.14 721.272 1066.96 725.112 1071.72 725.112C1076.49 725.112 1080.3 721.272 1080.3 716.472Z" stroke="#A588FF"/>
<path d="M1048.46 716.473H1094.96" stroke="#A588FF"/>
<path d="M1071.72 693.047V739.895" stroke="#A588FF"/>
<path d="M1110.03 640.057H1429.25" stroke="#A588FF"/>
<path d="M1100.5 630.457H1429.25" stroke="#A588FF"/>
<path d="M1090.97 620.855H1429.24" stroke="#A588FF"/>
<path d="M916.969 104.953L967.091 54.457" stroke="#A588FF"/>
<path d="M894.29 88.0559L939.838 33.3359" stroke="#A588FF"/>
<path d="M870.275 73.2723L910.869 14.9043" stroke="#A588FF"/>
<path d="M844.93 60.7908L880.377 -1.0332" stroke="#A588FF"/>
<path d="M818.817 50.4228L848.738 -14.2812" stroke="#A588FF"/>
<path d="M714.57 33.1446V-38.2794L743.729 -67.6554V-121.607" stroke="#A588FF"/>
<path d="M723.147 683.64C723.147 678.84 719.336 675 714.571 675C709.997 675 706.186 678.84 706.186 683.64C706.186 688.44 709.997 692.28 714.571 692.28C719.336 692.28 723.147 688.44 723.147 683.64Z" stroke="#A588FF"/>
<path d="M941.174 590.137L1031.32 680.953V751.993" stroke="#A588FF" stroke-linecap="square"/>
<path d="M714.57 -37.3203C810.813 -37.3203 898.86 -2.37631 967.088 55.4157" stroke="#A588FF"/>
<path d="M950.126 675C884.567 724.728 802.999 754.104 714.57 754.104" stroke="#A588FF"/>
<path d="M1090.97 472.057C1083.54 496.825 1073.82 520.633 1062.19 542.905" stroke="#A588FF"/>
<path d="M391.73 358.393H-0.100586" stroke="#A588FF"/>
<path d="M396.498 408.119H141.312" stroke="#A588FF"/>
<path d="M330.366 408.119L228.978 510.263H140.168" stroke="#A588FF"/>
<path d="M435.756 522.744L257.374 702.456H121.682" stroke="#A588FF"/>
<path d="M113.108 702.456C113.108 697.656 116.92 693.816 121.684 693.816C126.449 693.816 130.261 697.656 130.261 702.456C130.261 707.256 126.449 711.096 121.684 711.096C116.92 711.096 113.108 707.256 113.108 702.456Z" stroke="#A588FF"/>
<path d="M300.254 408.119L241.555 467.255H202.296" stroke="#A588FF"/>
<path d="M132.733 702.456C132.733 697.656 136.545 693.816 141.309 693.816C146.074 693.816 149.886 697.656 149.886 702.456C149.886 707.256 146.074 711.096 141.309 711.096C136.545 711.096 132.733 707.256 132.733 702.456Z" stroke="#A588FF"/>
<path d="M152.368 702.456C152.368 697.656 156.37 693.816 160.944 693.816C165.709 693.816 169.52 697.656 169.52 702.456C169.52 707.256 165.709 711.096 160.944 711.096C156.37 711.096 152.368 707.256 152.368 702.456Z" stroke="#A588FF"/>
<path d="M391.729 353.4H1.80469" stroke="#A588FF"/>
<path d="M357.621 408.119L238.89 529.079H75.9453" stroke="#A588FF"/>
<path d="M58.793 529.079C58.793 524.279 62.6045 520.439 67.369 520.439C72.1335 520.439 75.9451 524.279 75.9451 529.079C75.9451 533.687 72.1335 537.527 67.369 537.527C62.6045 537.527 58.793 533.687 58.793 529.079Z" stroke="#A588FF"/>
<path d="M425.846 620.472C425.846 615.672 429.657 611.832 434.422 611.832C439.186 611.832 442.998 615.672 442.998 620.472C442.998 625.272 439.186 629.112 434.422 629.112C429.657 629.112 425.846 625.272 425.846 620.472Z" stroke="#A588FF"/>
<path d="M457.673 620.471H411.172" stroke="#A588FF"/>
<path d="M434.423 597.047V643.895" stroke="#A588FF"/>
<path d="M91.7559 408.12C91.7559 403.512 95.5674 399.48 100.332 399.48C105.096 399.48 108.908 403.512 108.908 408.12C108.908 412.92 105.096 416.76 100.332 416.76C95.5674 416.76 91.7559 412.92 91.7559 408.12Z" stroke="#A588FF"/>
<path d="M123.589 408.119H77.0879" stroke="#A588FF"/>
<path d="M100.335 384.887V431.543" stroke="#A588FF"/>
<path d="M319.31 640.057H-0.100586" stroke="#A588FF"/>
<path d="M328.839 630.457H-0.100586" stroke="#A588FF"/>
<path d="M338.368 620.855H-0.100586" stroke="#A588FF"/>
<path d="M396.498 308.664H141.312" stroke="#A588FF"/>
<path d="M330.366 308.664L228.978 206.52H140.168" stroke="#A588FF"/>
<path d="M435.756 194.04L257.374 14.3281H121.682" stroke="#A588FF"/>
<path d="M113.108 14.3275C113.108 19.1275 116.92 22.9675 121.684 22.9675C126.449 22.9675 130.261 19.1275 130.261 14.3275C130.261 9.5275 126.449 5.6875 121.684 5.6875C116.92 5.6875 113.108 9.5275 113.108 14.3275Z" stroke="#A588FF"/>
<path d="M300.254 308.663L241.555 249.527H202.296" stroke="#A588FF"/>
<path d="M132.733 14.3275C132.733 19.1275 136.545 22.9675 141.309 22.9675C146.074 22.9675 149.886 19.1275 149.886 14.3275C149.886 9.5275 146.074 5.6875 141.309 5.6875C136.545 5.6875 132.733 9.5275 132.733 14.3275Z" stroke="#A588FF"/>
<path d="M152.368 14.3275C152.368 19.1275 156.37 22.9675 160.944 22.9675C165.709 22.9675 169.52 19.1275 169.52 14.3275C169.52 9.5275 165.709 5.6875 160.944 5.6875C156.37 5.6875 152.368 9.5275 152.368 14.3275Z" stroke="#A588FF"/>
<path d="M357.621 308.663L238.89 187.703H75.9453" stroke="#A588FF"/>
<path d="M58.793 187.704C58.793 192.504 62.6045 196.344 67.369 196.344C72.1335 196.344 75.9451 192.504 75.9451 187.704C75.9451 183.096 72.1335 179.256 67.369 179.256C62.6045 179.256 58.793 183.096 58.793 187.704Z" stroke="#A588FF"/>
<path d="M319.31 76.7266H-0.100586" stroke="#A588FF"/>
<path d="M328.839 86.3281H-0.100586" stroke="#A588FF"/>
<path d="M338.368 95.9277H-0.100586" stroke="#A588FF"/>
<path d="M512.371 611.832L462.249 662.328" stroke="#A588FF"/>
<path d="M535.048 628.727L489.5 683.447" stroke="#A588FF"/>
<path d="M559.061 643.512L518.468 701.88" stroke="#A588FF"/>
<path d="M584.408 655.992L548.96 717.816" stroke="#A588FF"/>
<path d="M610.516 666.359L580.595 731.063" stroke="#A588FF"/>
<path d="M488.167 126.649L398.023 35.8326V-35.2074L312.263 -121.607" stroke="#A588FF"/>
<path d="M714.576 754.103C618.524 754.103 530.476 719.159 462.249 661.367" stroke="#A588FF"/>
<path d="M479.209 41.7837C544.768 -7.94431 626.336 -37.3203 714.574 -37.3203" stroke="#A588FF"/>
<path d="M338.371 244.727C345.804 219.959 355.523 196.151 367.148 173.879" stroke="#A588FF"/>
</g>
</g>
</svg>