<svg width="1032" height="767" viewBox="0 0 1032 767" fill="none" xmlns="http://www.w3.org/2000/svg">
<g opacity="0.3">
<path opacity="0.1" d="M516 0.659119C800.819 0.659119 1031.5 183.174 1031.5 408.087C1031.5 633 800.819 815.515 516 815.515C231.181 815.515 0.5 633 0.5 408.087C0.500125 183.174 231.181 0.659119 516 0.659119Z" stroke="white"/>
<path opacity="0.15" d="M915.801 402.105C915.832 403.432 915.854 404.76 915.864 406.09L915.364 406.094C915.369 406.757 915.372 407.421 915.372 408.086C915.372 408.75 915.369 409.415 915.364 410.078L915.864 410.082C915.854 411.412 915.832 412.74 915.801 414.066L915.302 414.056C915.271 415.379 915.229 416.701 915.178 418.02L915.676 418.039C915.624 419.361 915.562 420.681 915.49 421.999L914.992 421.973C914.92 423.293 914.838 424.612 914.745 425.928L915.241 425.962C915.148 427.288 915.045 428.611 914.931 429.933L914.434 429.891C914.32 431.209 914.196 432.526 914.062 433.84L914.557 433.89C914.422 435.207 914.278 436.521 914.123 437.834L913.628 437.776C913.473 439.089 913.308 440.399 913.133 441.707L913.626 441.772C913.45 443.088 913.263 444.402 913.066 445.713L912.574 445.641C912.378 446.949 912.172 448.255 911.955 449.559L912.446 449.64C912.229 450.946 912.003 452.25 911.766 453.551L911.275 453.462C911.038 454.762 910.792 456.06 910.535 457.355L911.022 457.451C910.764 458.753 910.496 460.051 910.218 461.348L909.731 461.243C909.454 462.536 909.167 463.827 908.869 465.115L909.354 465.227C909.056 466.517 908.748 467.805 908.431 469.09L907.947 468.971C907.63 470.254 907.303 471.534 906.966 472.811L907.447 472.938C907.109 474.22 906.761 475.499 906.403 476.774L905.925 476.641C905.568 477.914 905.201 479.184 904.825 480.451L905.303 480.593C904.926 481.863 904.539 483.13 904.143 484.393L903.667 484.245C903.272 485.506 902.867 486.764 902.452 488.019L902.925 488.176C902.51 489.433 902.085 490.687 901.65 491.938L901.181 491.775C900.747 493.024 900.304 494.27 899.852 495.513L900.319 495.683C899.866 496.928 899.404 498.169 898.932 499.408L898.466 499.23C897.995 500.466 897.516 501.699 897.026 502.928L897.488 503.111C896.999 504.341 896.5 505.567 895.992 506.79L895.533 506.599C895.026 507.819 894.51 509.036 893.984 510.25L894.441 510.448C893.915 511.664 893.38 512.877 892.836 514.086L892.382 513.882C891.839 515.088 891.287 516.29 890.727 517.489L891.178 517.7C890.618 518.898 890.048 520.092 889.471 521.282L889.022 521.065C888.446 522.254 887.86 523.439 887.266 524.621L887.71 524.844C887.114 526.028 886.51 527.208 885.897 528.385L885.456 528.155C884.845 529.328 884.225 530.498 883.597 531.664L884.035 531.9C883.408 533.063 882.772 534.222 882.128 535.378L881.694 535.136C881.052 536.29 880.4 537.44 879.74 538.587L880.172 538.835C879.511 539.983 878.842 541.128 878.164 542.269L877.736 542.016C877.061 543.153 876.376 544.287 875.684 545.418L876.108 545.678C875.419 546.804 874.721 547.926 874.015 549.045L873.594 548.779C872.889 549.896 872.176 551.008 871.455 552.117L871.873 552.389C871.151 553.499 870.421 554.607 869.683 555.71L869.268 555.434C868.531 556.534 867.787 557.631 867.034 558.724L867.444 559.007C866.696 560.093 865.94 561.176 865.177 562.255L864.77 561.967C864.007 563.044 863.236 564.118 862.458 565.187L862.861 565.48C862.082 566.552 861.295 567.619 860.5 568.683L860.101 568.384C859.307 569.445 858.506 570.503 857.697 571.557L858.093 571.86C857.289 572.907 856.478 573.949 855.66 574.987L855.269 574.679C854.452 575.715 853.628 576.748 852.797 577.776L853.184 578.089C852.351 579.119 851.512 580.145 850.665 581.167L850.281 580.849C849.435 581.869 848.582 582.885 847.722 583.896L848.101 584.219C847.245 585.224 846.383 586.226 845.514 587.224L845.139 586.897C844.272 587.891 843.399 588.881 842.519 589.867L842.89 590.198C842.007 591.186 841.119 592.17 840.223 593.149L839.856 592.812C838.962 593.79 838.06 594.763 837.152 595.732L837.516 596.072C836.612 597.037 835.701 597.998 834.783 598.954L834.424 598.609C833.511 599.56 832.593 600.508 831.667 601.45L832.022 601.8C831.095 602.744 830.162 603.683 829.222 604.618L828.87 604.265C827.931 605.199 826.985 606.128 826.033 607.054L826.381 607.411C825.431 608.334 824.474 609.252 823.512 610.167L823.169 609.807C822.214 610.714 821.253 611.616 820.285 612.515L820.624 612.879C819.655 613.779 818.681 614.675 817.699 615.566L817.364 615.197C816.384 616.087 815.398 616.973 814.406 617.853L814.736 618.226C813.744 619.107 812.745 619.985 811.74 620.857L811.413 620.48C810.419 621.343 809.42 622.202 808.414 623.056L808.738 623.436C807.731 624.292 806.717 625.142 805.698 625.988L805.38 625.604C804.362 626.45 803.339 627.291 802.31 628.127L802.624 628.514C801.594 629.351 800.557 630.183 799.516 631.011L799.205 630.621C798.173 631.441 797.135 632.258 796.092 633.069L796.396 633.462C795.355 634.272 794.308 635.079 793.255 635.88L792.953 635.483C791.902 636.283 790.845 637.079 789.782 637.87L790.079 638.27C789.015 639.063 787.945 639.851 786.87 640.634L786.577 640.23C785.508 641.009 784.433 641.783 783.354 642.553L783.643 642.958C782.568 643.723 781.489 644.484 780.404 645.24L780.12 644.832C779.037 645.587 777.95 646.338 776.856 647.084L777.137 647.495C776.042 648.242 774.942 648.985 773.837 649.723L773.561 649.308C772.457 650.044 771.348 650.776 770.234 651.504L770.507 651.922C769.403 652.642 768.295 653.358 767.182 654.069L766.913 653.649C765.802 654.359 764.685 655.065 763.564 655.766L763.829 656.187C762.707 656.889 761.58 657.587 760.447 658.279L760.187 657.854C759.056 658.546 757.921 659.233 756.78 659.915L757.036 660.343C755.9 661.022 754.759 661.696 753.614 662.366L753.363 661.935C752.226 662.601 751.085 663.261 749.938 663.917L750.186 664.35C749.038 665.006 747.886 665.658 746.729 666.305L746.486 665.87C745.331 666.516 744.171 667.158 743.007 667.795L743.245 668.233C742.08 668.871 740.91 669.504 739.735 670.132L739.5 669.691C738.339 670.312 737.174 670.928 736.005 671.539L736.235 671.98C735.065 672.592 733.891 673.199 732.712 673.801L732.485 673.357C731.308 673.959 730.126 674.556 728.94 675.147L729.163 675.594C727.976 676.186 726.785 676.774 725.589 677.357L725.37 676.908C724.181 677.488 722.987 678.064 721.79 678.634L722.004 679.083C720.814 679.65 719.619 680.211 718.421 680.768L718.211 680.317C717.014 680.874 715.812 681.426 714.607 681.973L714.813 682.427C713.607 682.974 712.397 683.518 711.183 684.056L710.98 683.6C709.768 684.137 708.551 684.669 707.33 685.196L707.527 685.653C706.316 686.177 705.1 686.696 703.881 687.21L703.688 686.752C702.473 687.264 701.254 687.771 700.032 688.273L700.221 688.734C698.997 689.237 697.771 689.735 696.54 690.228L696.354 689.766C695.125 690.258 693.892 690.747 692.655 691.229L692.836 691.693C691.599 692.176 690.358 692.656 689.113 693.129L688.937 692.662C687.707 693.13 686.473 693.593 685.236 694.051L685.408 694.518C684.17 694.977 682.928 695.43 681.683 695.879L681.515 695.41C680.271 695.858 679.023 696.303 677.772 696.741L677.937 697.212C676.684 697.651 675.429 698.085 674.17 698.514L674.01 698.041C672.757 698.468 671.501 698.89 670.241 699.308L670.397 699.78C669.146 700.195 667.891 700.605 666.633 701.01L666.48 700.535C665.224 700.939 663.964 701.339 662.701 701.733L662.85 702.209C661.585 702.604 660.318 702.993 659.047 703.378L658.903 702.901C657.634 703.286 656.361 703.665 655.086 704.04L655.226 704.518C653.957 704.891 652.685 705.259 651.41 705.622L651.274 705.143C650.007 705.503 648.736 705.858 647.463 706.209L647.595 706.689C646.32 707.04 645.043 707.386 643.763 707.727L643.635 707.246C642.356 707.587 641.074 707.922 639.789 708.253L639.912 708.736C638.626 709.067 637.337 709.393 636.045 709.714L635.926 709.23C634.645 709.549 633.362 709.862 632.076 710.17L632.191 710.655C630.908 710.963 629.622 711.265 628.334 711.562L628.223 711.077C626.935 711.374 625.645 711.667 624.353 711.954L624.46 712.439C623.166 712.727 621.87 713.01 620.57 713.288L620.467 712.801C619.169 713.078 617.868 713.35 616.565 713.617L616.665 714.105C615.372 714.37 614.077 714.631 612.779 714.886L612.684 714.396C611.39 714.651 610.094 714.899 608.796 715.143L608.887 715.635C607.587 715.879 606.284 716.118 604.979 716.352L604.893 715.861C603.589 716.095 602.283 716.325 600.975 716.549L601.059 717.041C599.749 717.265 598.437 717.484 597.122 717.698L597.043 717.206C595.743 717.418 594.44 717.624 593.135 717.826L593.21 718.318C591.905 718.52 590.599 718.718 589.29 718.91L589.219 718.416C587.911 718.607 586.601 718.794 585.289 718.976L585.357 719.469C584.044 719.65 582.728 719.827 581.41 719.998L581.347 719.504C580.03 719.675 578.712 719.842 577.392 720.003L577.451 720.497C576.142 720.657 574.831 720.811 573.518 720.961L573.462 720.466C572.152 720.615 570.839 720.759 569.525 720.898L569.577 721.394C568.262 721.534 566.944 721.667 565.625 721.796L565.577 721.301C564.259 721.43 562.939 721.553 561.617 721.672L561.661 722.169C560.338 722.288 559.013 722.401 557.686 722.51L557.646 722.014C556.332 722.121 555.016 722.224 553.698 722.321L553.734 722.817C552.419 722.915 551.101 723.007 549.781 723.095L549.749 722.598C548.431 722.685 547.111 722.767 545.789 722.844L545.816 723.342C544.493 723.419 543.168 723.492 541.842 723.559L541.817 723.06C540.492 723.126 539.165 723.188 537.836 723.245L537.856 723.742C536.537 723.798 535.216 723.851 533.893 723.897L533.876 723.398C532.559 723.444 531.24 723.485 529.92 723.52L529.933 724.018C528.611 724.054 527.288 724.086 525.964 724.111L525.955 723.612C524.632 723.638 523.306 723.658 521.979 723.674L521.984 724.172C520.656 724.187 519.327 724.198 517.996 724.203L517.995 723.705C517.33 723.708 516.665 723.709 516 723.709C515.335 723.709 514.669 723.708 514.005 723.705L514.003 724.203C512.672 724.198 511.343 724.187 510.015 724.172L510.021 723.674C508.694 723.658 507.368 723.638 506.045 723.612L506.035 724.111C504.711 724.086 503.388 724.054 502.066 724.018L502.079 723.52C500.759 723.485 499.441 723.444 498.124 723.398L498.106 723.897C496.783 723.851 495.462 723.798 494.142 723.742L494.163 723.245C492.834 723.188 491.507 723.126 490.182 723.06L490.156 723.559C488.83 723.492 487.505 723.418 486.182 723.341L486.211 722.844C484.889 722.767 483.569 722.685 482.251 722.598L482.218 723.095C480.898 723.007 479.581 722.915 478.265 722.817L478.302 722.321C476.984 722.224 475.668 722.121 474.354 722.014L474.313 722.51C472.986 722.401 471.661 722.288 470.338 722.169L470.383 721.672C469.061 721.553 467.74 721.43 466.422 721.301L466.373 721.796C465.054 721.667 463.737 721.534 462.422 721.394L462.474 720.898C461.16 720.759 459.848 720.615 458.538 720.466L458.481 720.961C457.168 720.811 455.857 720.657 454.548 720.497L454.608 720.003C453.288 719.842 451.969 719.675 450.652 719.504L450.588 719.998C449.27 719.827 447.955 719.65 446.642 719.469L446.71 718.976C445.398 718.794 444.089 718.607 442.781 718.416L442.708 718.91C441.399 718.718 440.093 718.52 438.789 718.318L438.865 717.826C437.56 717.624 436.257 717.418 434.957 717.206L434.877 717.698C433.562 717.484 432.25 717.265 430.94 717.041L431.024 716.549C429.716 716.325 428.411 716.095 427.107 715.861L427.019 716.352C425.714 716.118 424.411 715.879 423.111 715.635L423.204 715.144C421.905 714.9 420.609 714.651 419.315 714.396L419.219 714.886C417.921 714.631 416.626 714.37 415.334 714.105L415.434 713.617C414.131 713.35 412.83 713.078 411.532 712.801L411.428 713.288C410.128 713.01 408.832 712.727 407.538 712.439L407.646 711.954C406.354 711.667 405.064 711.374 403.777 711.077L403.665 711.563C402.376 711.266 401.091 710.963 399.808 710.655L399.924 710.17C398.638 709.862 397.355 709.549 396.074 709.23L395.953 709.714C394.661 709.393 393.372 709.067 392.086 708.736L392.211 708.253C390.926 707.922 389.644 707.587 388.365 707.246L388.236 707.727C386.956 707.386 385.678 707.04 384.403 706.689L384.536 706.209C383.263 705.858 381.993 705.503 380.726 705.143L380.589 705.622C379.314 705.259 378.042 704.891 376.772 704.518L376.913 704.04C375.638 703.665 374.366 703.286 373.097 702.901L372.951 703.378C371.681 702.993 370.413 702.605 369.149 702.21L369.298 701.733C368.035 701.339 366.775 700.939 365.519 700.535L365.365 701.01C364.107 700.605 362.853 700.195 361.602 699.78L361.759 699.308C360.499 698.89 359.243 698.468 357.99 698.041L357.828 698.514C356.569 698.085 355.314 697.651 354.062 697.212L354.228 696.741C352.977 696.303 351.729 695.858 350.485 695.41L350.315 695.879C349.07 695.43 347.828 694.977 346.59 694.518L346.764 694.051C345.527 693.593 344.293 693.13 343.062 692.662L342.885 693.129C341.64 692.656 340.4 692.176 339.162 691.693L339.344 691.229C338.107 690.747 336.874 690.258 335.645 689.766L335.459 690.228C334.228 689.735 333.001 689.237 331.777 688.734L331.967 688.273C330.745 687.771 329.526 687.264 328.312 686.752L328.118 687.211C326.898 686.697 325.683 686.177 324.471 685.653L324.669 685.196C323.448 684.669 322.231 684.137 321.019 683.6L320.815 684.055C319.601 683.517 318.391 682.974 317.185 682.427L317.392 681.973C316.187 681.426 314.985 680.874 313.788 680.317L313.577 680.768C312.379 680.211 311.184 679.65 309.994 679.083L310.209 678.634C309.012 678.064 307.818 677.488 306.629 676.908L306.409 677.357C305.213 676.774 304.022 676.186 302.835 675.594L303.059 675.147C301.873 674.556 300.691 673.959 299.514 673.357L299.286 673.801C298.107 673.199 296.933 672.592 295.763 671.98L295.994 671.539C294.825 670.928 293.66 670.312 292.499 669.691L292.264 670.132C291.089 669.504 289.919 668.871 288.753 668.233L288.992 667.795C287.828 667.158 286.668 666.516 285.513 665.87L285.269 666.305C284.112 665.658 282.96 665.006 281.812 664.35L282.061 663.917C280.914 663.261 279.773 662.601 278.636 661.935L278.384 662.366C277.239 661.696 276.098 661.022 274.962 660.343L275.219 659.915C274.079 659.233 272.943 658.546 271.812 657.854L271.551 658.279C270.419 657.587 269.291 656.889 268.169 656.187L268.435 655.766C267.314 655.065 266.197 654.359 265.086 653.649L264.816 654.069C263.703 653.358 262.595 652.642 261.491 651.922L261.765 651.504C260.651 650.776 259.542 650.044 258.438 649.308L258.161 649.723C257.056 648.985 255.956 648.242 254.861 647.495L255.143 647.083C254.05 646.337 252.962 645.587 251.879 644.832L251.594 645.24C250.509 644.484 249.43 643.723 248.355 642.958L248.646 642.553C247.566 641.783 246.491 641.009 245.422 640.23L245.128 640.633C244.053 639.85 242.983 639.063 241.919 638.27L242.217 637.87C241.154 637.079 240.097 636.283 239.046 635.483L238.743 635.88C237.69 635.079 236.643 634.272 235.602 633.462L235.907 633.069C234.864 632.258 233.826 631.441 232.794 630.621L232.482 631.011C231.44 630.183 230.404 629.35 229.374 628.513L229.689 628.126C228.66 627.29 227.637 626.45 226.619 625.604L226.3 625.988C225.281 625.142 224.267 624.292 223.26 623.436L223.585 623.056C222.579 622.202 221.58 621.343 220.586 620.48L220.258 620.857C219.253 619.985 218.255 619.107 217.262 618.226L217.593 617.853C216.601 616.973 215.615 616.087 214.635 615.197L214.299 615.565C213.318 614.674 212.343 613.779 211.374 612.879L211.714 612.515C210.746 611.616 209.785 610.714 208.83 609.807L208.486 610.168C207.524 609.253 206.567 608.334 205.617 607.411L205.966 607.054C205.014 606.128 204.069 605.198 203.13 604.265L202.776 604.618C201.836 603.683 200.903 602.744 199.976 601.8L200.332 601.45C199.406 600.508 198.488 599.56 197.575 598.609L197.215 598.954C196.297 597.998 195.386 597.038 194.482 596.073L194.847 595.732C193.939 594.763 193.038 593.79 192.144 592.812L191.775 593.149C190.879 592.17 189.99 591.187 189.108 590.199L189.481 589.867C188.601 588.881 187.727 587.892 186.86 586.897L186.484 587.224C185.615 586.226 184.753 585.224 183.897 584.219L184.277 583.896C183.417 582.885 182.564 581.869 181.718 580.849L181.334 581.166C180.487 580.144 179.647 579.119 178.814 578.089L179.202 577.776C178.371 576.748 177.547 575.715 176.73 574.679L176.338 574.987C175.52 573.949 174.709 572.907 173.905 571.86L174.302 571.557C173.493 570.503 172.692 569.445 171.898 568.384L171.498 568.683C170.703 567.619 169.916 566.552 169.137 565.48L169.541 565.187C168.763 564.118 167.992 563.045 167.229 561.968L166.822 562.256C166.058 561.177 165.302 560.094 164.554 559.007L164.965 558.724C164.212 557.631 163.468 556.534 162.731 555.434L162.316 555.71C161.578 554.607 160.848 553.5 160.126 552.39L160.544 552.118C159.823 551.009 159.11 549.896 158.405 548.779L157.983 549.045C157.277 547.926 156.579 546.805 155.89 545.679L156.315 545.418C155.623 544.288 154.939 543.153 154.264 542.016L153.834 542.269C153.156 541.128 152.487 539.983 151.826 538.835L152.259 538.587C151.599 537.44 150.948 536.29 150.306 535.137L149.87 535.378C149.226 534.222 148.59 533.063 147.963 531.9L148.402 531.664C147.774 530.498 147.154 529.328 146.543 528.155L146.101 528.386C145.488 527.209 144.884 526.028 144.288 524.845L144.733 524.621C144.139 523.439 143.553 522.254 142.977 521.065L142.528 521.282C141.951 520.092 141.381 518.898 140.821 517.7L141.272 517.489C140.712 516.29 140.16 515.088 139.617 513.882L139.162 514.086C138.618 512.877 138.083 511.664 137.557 510.448L138.015 510.251C137.49 509.037 136.974 507.82 136.467 506.6L136.006 506.79C135.498 505.567 134.999 504.341 134.51 503.112L134.974 502.928C134.484 501.699 134.004 500.467 133.533 499.231L133.066 499.408C132.595 498.17 132.133 496.928 131.68 495.684L132.147 495.513C131.695 494.27 131.253 493.025 130.819 491.776L130.348 491.938C129.913 490.687 129.488 489.433 129.073 488.176L129.547 488.02C129.132 486.765 128.728 485.506 128.332 484.245L127.855 484.393C127.459 483.13 127.072 481.863 126.695 480.593L127.174 480.452C126.798 479.185 126.431 477.914 126.074 476.641L125.595 476.774C125.237 475.499 124.889 474.22 124.551 472.938L125.033 472.812C124.696 471.535 124.369 470.255 124.052 468.972L123.568 469.091C123.251 467.806 122.942 466.518 122.644 465.227L123.13 465.115C122.833 463.828 122.545 462.537 122.268 461.244L121.78 461.348C121.502 460.052 121.234 458.753 120.976 457.452L121.465 457.355C121.208 456.06 120.961 454.763 120.724 453.463L120.233 453.551C119.996 452.25 119.769 450.946 119.552 449.64L120.044 449.56C119.827 448.256 119.621 446.949 119.425 445.641L118.932 445.714C118.735 444.402 118.548 443.089 118.372 441.772L118.866 441.707C118.691 440.399 118.526 439.089 118.371 437.776L117.875 437.834C117.72 436.522 117.576 435.207 117.441 433.891L117.938 433.841C117.803 432.526 117.679 431.209 117.565 429.891L117.067 429.933C116.953 428.611 116.85 427.288 116.757 425.962L117.254 425.928C117.161 424.612 117.079 423.294 117.007 421.974L116.508 422C116.436 420.682 116.374 419.361 116.322 418.039L116.821 418.02C116.77 416.701 116.728 415.379 116.697 414.056L116.197 414.066C116.166 412.741 116.144 411.413 116.134 410.083L116.635 410.079C116.63 409.415 116.627 408.751 116.627 408.086C116.627 407.421 116.63 406.757 116.635 406.094L116.135 406.09L116.134 406.089C116.139 405.392 116.149 404.696 116.16 404.001L116.197 402.105L116.697 402.117C116.728 400.794 116.77 399.472 116.821 398.152L116.322 398.133C116.352 397.377 116.384 396.621 116.42 395.866L116.508 394.173L117.007 394.2C117.079 392.88 117.161 391.561 117.254 390.245L116.757 390.21C116.85 388.884 116.953 387.561 117.067 386.239L117.565 386.282C117.679 384.964 117.803 383.647 117.938 382.333L117.441 382.282C117.576 380.965 117.72 379.65 117.875 378.338L118.371 378.396C118.526 377.084 118.691 375.774 118.866 374.466L118.372 374.399C118.548 373.083 118.735 371.769 118.932 370.458L119.425 370.532C119.621 369.224 119.827 367.918 120.044 366.614L119.552 366.532C119.769 365.226 119.996 363.922 120.233 362.621L120.724 362.711C120.961 361.411 121.208 360.112 121.465 358.817L120.976 358.72C121.234 357.418 121.502 356.12 121.78 354.824L122.268 354.93C122.545 353.636 122.832 352.345 123.13 351.058L122.644 350.945C122.942 349.655 123.25 348.367 123.567 347.082L124.052 347.202C124.369 345.919 124.696 344.639 125.033 343.361L124.551 343.233C124.889 341.952 125.236 340.673 125.594 339.397L126.074 339.532C126.431 338.259 126.798 336.989 127.174 335.722L126.695 335.579C127.072 334.309 127.459 333.042 127.855 331.778L128.332 331.928C128.727 330.666 129.132 329.408 129.547 328.152L129.073 327.996C129.489 326.739 129.913 325.484 130.348 324.233L130.819 324.397C131.253 323.149 131.695 321.903 132.147 320.66L131.679 320.489C132.132 319.244 132.594 318.002 133.066 316.764L133.533 316.941C134.004 315.706 134.483 314.474 134.973 313.245L134.51 313.06C134.999 311.83 135.498 310.604 136.006 309.382L136.467 309.574C136.974 308.354 137.489 307.137 138.015 305.923L137.557 305.724C138.083 304.508 138.618 303.295 139.162 302.086L139.617 302.291C140.16 301.085 140.712 299.883 141.272 298.684L140.821 298.473C141.381 297.275 141.95 296.08 142.527 294.89L142.977 295.107C143.553 293.919 144.139 292.733 144.733 291.552L144.288 291.327C144.883 290.144 145.488 288.964 146.101 287.787L146.543 288.018C147.154 286.844 147.774 285.675 148.402 284.509L147.963 284.271C148.59 283.108 149.226 281.95 149.87 280.794L150.305 281.036C150.947 279.882 151.599 278.732 152.259 277.586L151.826 277.337C152.487 276.188 153.156 275.043 153.834 273.902L154.264 274.157C154.939 273.019 155.623 271.885 156.315 270.755L155.89 270.493C156.579 269.367 157.277 268.245 157.983 267.127L158.405 267.393C159.11 266.277 159.823 265.164 160.544 264.055L160.126 263.782C160.848 262.672 161.578 261.565 162.316 260.462L162.731 260.739C163.468 259.639 164.212 258.542 164.965 257.449L164.554 257.165C165.302 256.078 166.058 254.995 166.822 253.916L167.229 254.205C167.992 253.128 168.763 252.055 169.541 250.985L169.137 250.691C169.916 249.62 170.703 248.553 171.498 247.489L171.898 247.789C172.692 246.728 173.493 245.67 174.302 244.616L173.905 244.311C174.709 243.265 175.52 242.223 176.338 241.185L176.73 241.494C177.547 240.458 178.371 239.425 179.202 238.396L178.813 238.082C179.646 237.052 180.487 236.027 181.334 235.006L181.718 235.324C182.564 234.304 183.417 233.287 184.277 232.275L183.896 231.952C184.752 230.946 185.615 229.945 186.484 228.947L186.86 229.275C187.727 228.281 188.601 227.291 189.481 226.305L189.109 225.973C189.991 224.985 190.88 224.001 191.775 223.022L192.144 223.36C193.038 222.383 193.939 221.409 194.847 220.44L194.482 220.099C195.386 219.134 196.297 218.174 197.215 217.218L197.575 217.562C198.488 216.612 199.406 215.665 200.332 214.723L199.976 214.372C200.453 213.886 200.933 213.4 201.414 212.916L202.776 211.554L203.13 211.908C204.069 210.974 205.014 210.044 205.966 209.119L205.617 208.761C206.567 207.837 207.524 206.918 208.486 206.004L208.83 206.366C209.785 205.459 210.746 204.557 211.714 203.658L211.374 203.293C212.343 202.393 213.318 201.497 214.299 200.606L214.635 200.976C215.615 200.086 216.601 199.2 217.593 198.319L217.262 197.946C218.255 197.065 219.253 196.187 220.258 195.314L220.586 195.692C221.58 194.83 222.579 193.971 223.585 193.117L223.261 192.735C224.268 191.88 225.281 191.03 226.3 190.184L226.619 190.568C227.637 189.723 228.66 188.882 229.689 188.046L229.374 187.659C230.405 186.822 231.44 185.988 232.482 185.16L232.794 185.551C233.826 184.73 234.864 183.915 235.907 183.103L235.601 182.709C236.643 181.899 237.69 181.092 238.743 180.291L239.046 180.689C240.098 179.889 241.155 179.094 242.218 178.303L241.919 177.901C242.983 177.109 244.053 176.321 245.128 175.538L245.422 175.942C246.491 175.164 247.566 174.39 248.646 173.62L248.355 173.214C249.429 172.449 250.508 171.688 251.593 170.932L251.879 171.341C252.962 170.586 254.05 169.835 255.144 169.089L254.861 168.677C255.956 167.93 257.056 167.187 258.161 166.449L258.438 166.865C259.542 166.128 260.651 165.396 261.765 164.669L261.491 164.25C262.595 163.529 263.703 162.814 264.816 162.102L265.086 162.523C266.197 161.813 267.314 161.108 268.435 160.407L268.169 159.984C269.292 159.282 270.419 158.585 271.552 157.893L271.812 158.318C272.943 157.627 274.078 156.94 275.219 156.258L274.962 155.829C276.098 155.15 277.239 154.476 278.384 153.806L278.636 154.236C279.773 153.571 280.914 152.912 282.061 152.256L281.812 151.822C282.96 151.166 284.112 150.514 285.269 149.867L285.513 150.302C286.668 149.655 287.828 149.014 288.992 148.377L288.753 147.938C289.919 147.301 291.088 146.667 292.263 146.039L292.264 146.04L292.499 146.481C293.66 145.861 294.825 145.245 295.994 144.634L295.763 144.19C296.933 143.579 298.108 142.973 299.286 142.371L299.514 142.815C300.691 142.214 301.873 141.617 303.059 141.025L302.835 140.578C304.022 139.986 305.213 139.397 306.409 138.814L306.629 139.264C307.818 138.684 309.012 138.109 310.209 137.539L309.994 137.089C311.185 136.522 312.379 135.959 313.577 135.402L313.788 135.855C314.985 135.299 316.187 134.747 317.392 134.2L317.185 133.744C318.391 133.197 319.601 132.655 320.815 132.117L321.019 132.573C322.231 132.036 323.448 131.503 324.669 130.976L324.471 130.518C325.682 129.994 326.898 129.475 328.117 128.961L328.312 129.421C329.526 128.909 330.745 128.402 331.967 127.899L331.777 127.436C333.001 126.934 334.228 126.436 335.459 125.943L335.645 126.407C336.874 125.915 338.107 125.426 339.344 124.943L339.162 124.478C340.4 123.995 341.64 123.516 342.885 123.043L343.062 123.511C344.293 123.043 345.527 122.58 346.764 122.122L346.59 121.653C347.828 121.195 349.07 120.741 350.315 120.292L350.485 120.762C351.729 120.313 352.977 119.87 354.228 119.432L354.062 118.96C355.314 118.521 356.569 118.087 357.828 117.658L357.989 118.131C359.242 117.704 360.498 117.282 361.758 116.865L361.602 116.392C362.853 115.977 364.107 115.567 365.365 115.162L365.519 115.638C366.775 115.233 368.035 114.834 369.298 114.439L369.148 113.963C370.413 113.568 371.68 113.178 372.951 112.793L373.096 113.271C374.365 112.887 375.638 112.507 376.913 112.133L376.772 111.653C378.041 111.281 379.313 110.911 380.588 110.549L380.589 110.55L380.726 111.03C381.993 110.67 383.263 110.314 384.536 109.964L384.403 109.482C385.678 109.131 386.956 108.784 388.236 108.443L388.364 108.927C389.643 108.586 390.926 108.251 392.211 107.92L392.086 107.435C393.372 107.104 394.661 106.779 395.953 106.458L396.073 106.942C397.354 106.624 398.638 106.311 399.924 106.003L399.807 105.517C401.09 105.209 402.376 104.907 403.664 104.609L403.777 105.096C405.064 104.798 406.354 104.506 407.646 104.219L407.538 103.731C408.832 103.444 410.128 103.16 411.428 102.883L411.532 103.372C412.83 103.095 414.131 102.823 415.434 102.556L415.333 102.066C416.626 101.801 417.921 101.541 419.219 101.286L419.315 101.776C420.609 101.522 421.905 101.272 423.203 101.028L423.111 100.537C424.411 100.293 425.714 100.054 427.019 99.8193L427.106 100.311C428.41 100.077 429.716 99.848 431.024 99.624L430.94 99.1308C432.25 98.9065 433.562 98.6877 434.876 98.4736L434.956 98.9667C436.256 98.7549 437.559 98.5484 438.864 98.3466L438.788 97.8525C440.093 97.6507 441.399 97.4533 442.708 97.2617L442.78 97.7568C444.088 97.5653 445.398 97.3786 446.71 97.1972L446.642 96.7031C447.955 96.5215 449.27 96.3442 450.588 96.1728L450.652 96.6689C451.969 96.4977 453.287 96.3309 454.607 96.1699L454.547 95.6747C455.856 95.5151 457.168 95.3605 458.481 95.2109L458.537 95.707C459.847 95.5578 461.16 95.4135 462.474 95.2744L462.421 94.7773L462.42 94.7763C463.736 94.637 465.053 94.5051 466.373 94.3759L466.422 94.872C467.74 94.743 469.06 94.6187 470.382 94.4999L470.337 94.0029C471.66 93.884 472.985 93.7707 474.312 93.662L474.354 94.1591C475.667 94.0515 476.983 93.949 478.301 93.8515L478.264 93.3535C479.58 93.2561 480.897 93.1644 482.217 93.0771L482.25 93.5751C483.568 93.488 484.888 93.4061 486.21 93.329L486.182 92.831C487.505 92.7539 488.83 92.6801 490.156 92.6132L490.182 93.1132C491.507 93.0464 492.834 92.9843 494.163 92.9277L494.142 92.4296C495.461 92.3734 496.782 92.3204 498.105 92.2744L498.123 92.7744C499.44 92.7285 500.759 92.688 502.079 92.6523L502.065 92.1533C503.387 92.1175 504.71 92.0861 506.035 92.0605L506.044 92.5595C507.367 92.5339 508.693 92.5134 510.02 92.498L510.014 91.999C511.342 91.9836 512.671 91.9738 514.002 91.9687L514.004 92.4677C514.669 92.4651 515.334 92.4638 516 92.4638C516.665 92.4638 517.331 92.4651 517.995 92.4677V91.9687C519.326 91.9738 520.656 91.9836 521.984 91.999L521.979 92.498C523.306 92.5134 524.631 92.5339 525.954 92.5595L525.963 92.0605C527.288 92.0861 528.611 92.1175 529.933 92.1533L529.92 92.6523C531.24 92.688 532.558 92.7285 533.875 92.7744L533.892 92.2744C535.215 92.3204 536.536 92.3734 537.856 92.4296L537.836 92.9277C539.165 92.9843 540.492 93.0464 541.817 93.1132L541.842 92.6132C543.168 92.6801 544.493 92.7529 545.816 92.83L545.788 93.329C547.11 93.4061 548.43 93.488 549.748 93.5751L549.78 93.0771C551.1 93.1643 552.418 93.2561 553.733 93.3535L553.697 93.8515C555.015 93.949 556.331 94.0515 557.645 94.1591L557.685 93.662C559.012 93.7707 560.337 93.884 561.66 94.0029L561.617 94.4999C562.939 94.6187 564.259 94.743 565.577 94.872L565.625 94.3759C566.945 94.5051 568.263 94.637 569.578 94.7763V94.7773L569.525 95.2744C570.839 95.4134 572.151 95.5578 573.461 95.707L573.517 95.2109C574.83 95.3604 576.141 95.5151 577.45 95.6747L577.391 96.1699C578.711 96.3309 580.03 96.4967 581.347 96.6679L581.41 96.1728C582.728 96.3442 584.043 96.5215 585.356 96.7031L585.289 97.1972C586.601 97.3786 587.911 97.5653 589.219 97.7568L589.29 97.2617C590.599 97.4533 591.906 97.6507 593.21 97.8525L593.134 98.3456C594.439 98.5475 595.742 98.7549 597.042 98.9667L597.122 98.4736C598.436 98.6877 599.748 98.9065 601.058 99.1308L600.975 99.624C602.283 99.848 603.588 100.076 604.892 100.31L604.979 99.8193C606.284 100.054 607.587 100.293 608.887 100.537L608.795 101.028C610.094 101.272 611.39 101.522 612.684 101.776L612.779 101.286C614.077 101.541 615.372 101.801 616.665 102.066L616.565 102.556C617.868 102.823 619.169 103.095 620.467 103.372L620.57 102.883C621.87 103.16 623.166 103.444 624.46 103.731L624.353 104.219C625.645 104.506 626.935 104.798 628.222 105.096L628.333 104.608C629.622 104.906 630.908 105.209 632.191 105.517L632.075 106.003C633.361 106.311 634.644 106.624 635.925 106.942L636.045 106.458C637.337 106.779 638.626 107.104 639.912 107.435L639.788 107.919C641.073 108.25 642.355 108.586 643.634 108.927L643.762 108.443C645.042 108.784 646.32 109.131 647.595 109.482L647.463 109.964C648.736 110.314 650.006 110.67 651.273 111.03L651.41 110.55V110.549C652.685 110.911 653.957 111.281 655.226 111.653L655.086 112.133C656.361 112.507 657.634 112.887 658.903 113.271L659.047 112.793C660.318 113.178 661.585 113.568 662.85 113.963L662.701 114.439C663.964 114.834 665.224 115.233 666.48 115.638L666.633 115.162C667.891 115.567 669.145 115.976 670.396 116.391L670.24 116.865C671.5 117.282 672.757 117.704 674.01 118.131L674.17 117.658C675.429 118.087 676.684 118.521 677.937 118.96L677.771 119.432C679.022 119.87 680.27 120.313 681.514 120.762L681.683 120.292C682.928 120.741 684.17 121.195 685.408 121.653L685.235 122.122C686.472 122.58 687.706 123.043 688.937 123.511L689.113 123.043C690.358 123.516 691.599 123.995 692.836 124.478L692.655 124.943C693.892 125.426 695.125 125.914 696.354 126.406L696.54 125.943C697.771 126.436 698.998 126.934 700.221 127.436H700.222L700.032 127.899C701.254 128.402 702.473 128.909 703.688 129.421L703.881 128.961C705.1 129.475 706.316 129.994 707.527 130.518L707.33 130.976C708.551 131.503 709.768 132.036 710.98 132.573L711.183 132.116C712.397 132.654 713.607 133.197 714.813 133.744L714.607 134.2C715.812 134.747 717.014 135.299 718.211 135.855L718.421 135.402C719.62 135.96 720.814 136.522 722.005 137.089L721.79 137.539C722.987 138.109 724.181 138.684 725.37 139.264L725.589 138.814C726.785 139.397 727.976 139.986 729.163 140.578L728.94 141.025C730.126 141.617 731.308 142.214 732.485 142.815L732.712 142.371C733.891 142.973 735.065 143.579 736.235 144.19L736.005 144.634C737.174 145.245 738.339 145.861 739.5 146.481L739.735 146.04C740.91 146.668 742.08 147.302 743.246 147.939L743.007 148.377C744.171 149.014 745.331 149.655 746.486 150.302L746.729 149.867C747.886 150.514 749.038 151.166 750.186 151.822L749.938 152.256C751.085 152.912 752.226 153.572 753.363 154.237L753.615 153.806C754.76 154.475 755.901 155.15 757.036 155.829H757.037L756.78 156.258C757.921 156.94 759.057 157.627 760.188 158.318L760.447 157.893C761.58 158.585 762.707 159.283 763.829 159.984L763.565 160.407C764.686 161.108 765.803 161.813 766.914 162.523L767.182 162.102C768.295 162.814 769.403 163.529 770.507 164.25L770.234 164.669C771.348 165.396 772.457 166.128 773.561 166.865L773.837 166.449C774.942 167.187 776.042 167.93 777.137 168.677L776.856 169.089C777.95 169.835 779.037 170.586 780.12 171.341L780.405 170.932C781.49 171.688 782.569 172.449 783.643 173.214L783.354 173.62C784.433 174.39 785.508 175.164 786.577 175.942L786.871 175.538C787.946 176.321 789.015 177.109 790.079 177.901L789.782 178.303C790.845 179.094 791.902 179.889 792.953 180.689L793.256 180.292C794.309 181.093 795.356 181.9 796.397 182.71L796.092 183.103C797.135 183.915 798.173 184.73 799.205 185.551L799.516 185.16C800.558 185.988 801.594 186.821 802.624 187.658L802.311 188.046C803.34 188.882 804.362 189.723 805.38 190.568L805.698 190.184C806.717 191.03 807.73 191.88 808.737 192.735L808.414 193.117C809.42 193.971 810.42 194.83 811.414 195.692L811.74 195.314C812.745 196.187 813.744 197.065 814.736 197.946L814.406 198.319C815.398 199.2 816.384 200.086 817.364 200.976L817.699 200.605C818.681 201.497 819.655 202.393 820.624 203.293L820.285 203.658C821.253 204.557 822.214 205.459 823.169 206.366L823.512 206.005C824.474 206.919 825.431 207.838 826.381 208.761L826.033 209.119C826.985 210.044 827.931 210.974 828.87 211.908L829.223 211.554C830.163 212.489 831.096 213.428 832.022 214.372H832.023L831.667 214.723C832.593 215.665 833.512 216.612 834.424 217.562L834.783 217.218C835.701 218.174 836.612 219.134 837.516 220.099L837.152 220.44C838.06 221.409 838.962 222.383 839.856 223.36L840.223 223.022C841.118 224.001 842.007 224.985 842.889 225.973L842.519 226.305C843.399 227.291 844.272 228.281 845.139 229.275L845.514 228.947C846.383 229.945 847.246 230.946 848.102 231.952L847.722 232.275C848.582 233.287 849.435 234.304 850.281 235.324L850.665 235.005C851.512 236.026 852.352 237.052 853.185 238.082L852.797 238.396C853.628 239.425 854.452 240.457 855.269 241.493L855.66 241.185C856.478 242.223 857.289 243.265 858.093 244.311L857.697 244.616C858.506 245.67 859.307 246.727 860.101 247.788L860.5 247.489C861.295 248.552 862.082 249.619 862.861 250.69L862.458 250.985C863.236 252.055 864.007 253.128 864.77 254.205L865.176 253.916C865.94 254.995 866.696 256.078 867.444 257.165L867.034 257.448C867.787 258.541 868.531 259.639 869.268 260.739L869.682 260.461C870.42 261.564 871.15 262.671 871.872 263.782L871.455 264.055C872.176 265.164 872.889 266.277 873.594 267.393L874.015 267.127C874.721 268.245 875.419 269.367 876.108 270.493L875.684 270.754C876.376 271.884 877.06 273.019 877.735 274.157L878.164 273.902C878.842 275.043 879.511 276.188 880.172 277.337L879.74 277.586C880.4 278.732 881.052 279.882 881.694 281.036L882.128 280.794C882.772 281.95 883.408 283.108 884.035 284.271L883.597 284.509C884.225 285.675 884.845 286.844 885.456 288.018L885.897 287.786C886.51 288.963 887.114 290.143 887.71 291.327L887.266 291.552C887.86 292.733 888.446 293.919 889.022 295.107L889.471 294.889C890.049 296.079 890.618 297.274 891.178 298.472L890.727 298.684C891.287 299.882 891.839 301.085 892.382 302.291L892.836 302.086C893.38 303.295 893.915 304.508 894.441 305.724L893.984 305.922C894.51 307.136 895.025 308.353 895.532 309.573L895.992 309.382C896.5 310.604 896.999 311.83 897.488 313.06L897.025 313.244C897.515 314.473 897.995 315.706 898.466 316.941L898.932 316.764C899.404 318.002 899.866 319.243 900.319 320.488L899.852 320.659C900.304 321.902 900.746 323.148 901.18 324.396L901.649 324.232C902.084 325.484 902.51 326.738 902.925 327.995L902.452 328.152C902.867 329.408 903.272 330.666 903.667 331.928L904.143 331.778C904.539 333.042 904.926 334.309 905.303 335.579L904.825 335.721C905.201 336.988 905.568 338.259 905.925 339.532L906.404 339.397C906.762 340.673 907.109 341.952 907.447 343.233L906.966 343.36C907.303 344.638 907.63 345.918 907.947 347.201L908.431 347.081C908.748 348.366 909.056 349.654 909.354 350.944L908.869 351.057C909.167 352.344 909.454 353.635 909.731 354.929L910.218 354.824C910.496 356.12 910.764 357.418 911.022 358.72L910.534 358.817C910.791 360.112 911.039 361.41 911.275 362.71L911.766 362.62C912.003 363.921 912.229 365.225 912.446 366.531L911.955 366.613C912.172 367.917 912.378 369.224 912.574 370.532L913.066 370.458C913.263 371.769 913.45 373.082 913.626 374.398L913.133 374.465C913.308 375.773 913.473 377.084 913.628 378.396L914.123 378.338C914.278 379.65 914.422 380.964 914.557 382.281L914.062 382.332C914.196 383.646 914.32 384.963 914.434 386.282L914.931 386.239C915.045 387.561 915.148 388.884 915.241 390.21L914.745 390.245C914.838 391.561 914.92 392.879 914.992 394.199L915.49 394.172C915.562 395.49 915.624 396.81 915.676 398.133L915.178 398.152C915.229 399.472 915.271 400.794 915.302 402.117L915.801 402.105Z" stroke="white" stroke-dasharray="4 4"/>
<path opacity="0.2" d="M515.999 185.137C671.942 185.137 798.149 285.059 798.149 408.088C798.149 531.117 671.942 631.039 515.999 631.039C360.056 631.039 233.85 531.117 233.85 408.088C233.85 285.059 360.056 185.137 515.999 185.137Z" stroke="white"/>
<path d="M177.477 92.4636C183.367 92.4636 187.933 96.2207 187.933 100.625C187.932 105.029 183.367 108.786 177.477 108.786C171.587 108.786 167.022 105.029 167.021 100.625C167.021 96.2208 171.586 92.4637 177.477 92.4636Z" stroke="#4D3763"/>
<path d="M177.478 97.6611C179.738 97.6611 181.36 99.0919 181.36 100.626C181.36 102.16 179.737 103.59 177.478 103.59C175.218 103.59 173.596 102.16 173.596 100.626C173.596 99.092 175.218 97.6612 177.478 97.6611Z" fill="#2A193C" stroke="#4D3763"/>
</g>
</svg>
