<svg width="24" height="25" viewBox="0 0 24 25" fill="none" xmlns="http://www.w3.org/2000/svg">
<path d="M5.85 12.6L5.55 11.1C5.35 11.0167 5.1625 10.9292 4.9875 10.8375C4.8125 10.7458 4.63333 10.6333 4.45 10.5L3 10.95L2 9.25001L3.15 8.25001C3.11667 8.03334 3.1 7.81667 3.1 7.60001C3.1 7.38334 3.11667 7.16667 3.15 6.95001L2 5.95001L3 4.25001L4.45 4.70001C4.63333 4.56667 4.8125 4.45417 4.9875 4.36251C5.1625 4.27084 5.35 4.18334 5.55 4.10001L5.85 2.60001H7.85L8.15 4.10001C8.35 4.18334 8.5375 4.27084 8.7125 4.36251C8.8875 4.45417 9.06667 4.56667 9.25 4.70001L10.7 4.25001L11.7 5.95001L10.55 6.95001C10.5833 7.16667 10.6 7.38334 10.6 7.60001C10.6 7.81667 10.5833 8.03334 10.55 8.25001L11.7 9.25001L10.7 10.95L9.25 10.5C9.06667 10.6333 8.8875 10.7458 8.7125 10.8375C8.5375 10.9292 8.35 11.0167 8.15 11.1L7.85 12.6H5.85ZM6.85 9.60001C7.4 9.60001 7.87083 9.40417 8.2625 9.01251C8.65417 8.62084 8.85 8.15001 8.85 7.60001C8.85 7.05001 8.65417 6.57917 8.2625 6.18751C7.87083 5.79584 7.4 5.60001 6.85 5.60001C6.3 5.60001 5.82917 5.79584 5.4375 6.18751C5.04583 6.57917 4.85 7.05001 4.85 7.60001C4.85 8.15001 5.04583 8.62084 5.4375 9.01251C5.82917 9.40417 6.3 9.60001 6.85 9.60001ZM14.8 23.6L14.35 21.5C14.0667 21.4 13.8042 21.2792 13.5625 21.1375C13.3208 20.9958 13.0833 20.8333 12.85 20.65L10.85 21.3L9.45 18.9L11.05 17.5C11.0167 17.2 11 16.9 11 16.6C11 16.3 11.0167 16 11.05 15.7L9.45 14.3L10.85 11.9L12.85 12.55C13.0833 12.3667 13.3208 12.2042 13.5625 12.0625C13.8042 11.9208 14.0667 11.8 14.35 11.7L14.8 9.60001H17.6L18.05 11.7C18.3333 11.8 18.5958 11.9208 18.8375 12.0625C19.0792 12.2042 19.3167 12.3667 19.55 12.55L21.55 11.9L22.95 14.3L21.35 15.7C21.3833 16 21.4 16.3 21.4 16.6C21.4 16.9 21.3833 17.2 21.35 17.5L22.95 18.9L21.55 21.3L19.55 20.65C19.3167 20.8333 19.0792 20.9958 18.8375 21.1375C18.5958 21.2792 18.3333 21.4 18.05 21.5L17.6 23.6H14.8ZM16.2 19.6C17.0333 19.6 17.7417 19.3083 18.325 18.725C18.9083 18.1417 19.2 17.4333 19.2 16.6C19.2 15.7667 18.9083 15.0583 18.325 14.475C17.7417 13.8917 17.0333 13.6 16.2 13.6C15.3667 13.6 14.6583 13.8917 14.075 14.475C13.4917 15.0583 13.2 15.7667 13.2 16.6C13.2 17.4333 13.4917 18.1417 14.075 18.725C14.6583 19.3083 15.3667 19.6 16.2 19.6Z" fill="#C7AEFF"/>
</svg>
