<svg width="24" height="25" viewBox="0 0 24 25" fill="none" xmlns="http://www.w3.org/2000/svg">
<path d="M8.07539 20.6C7.89206 20.6 7.72122 20.5542 7.56289 20.4625C7.40456 20.3708 7.28372 20.2417 7.20039 20.075L5.25039 16.6H6.70039L7.70039 18.6H10.0004V17.6H8.30039L7.30039 15.6H4.70039L3.27539 13.1C3.24206 13.0167 3.21289 12.9333 3.18789 12.85C3.16289 12.7667 3.15039 12.6833 3.15039 12.6C3.15039 12.5333 3.19206 12.3667 3.27539 12.1L4.70039 9.60001H7.30039L8.30039 7.60001H10.0004V6.60001H7.70039L6.70039 8.60001H5.25039L7.20039 5.12501C7.28372 4.95834 7.40456 4.82917 7.56289 4.73751C7.72122 4.64584 7.89206 4.60001 8.07539 4.60001H10.5004C10.7837 4.60001 11.0212 4.69584 11.2129 4.88751C11.4046 5.07917 11.5004 5.31667 11.5004 5.60001V9.60001H10.0004L9.00039 10.6H11.5004V13.6H9.30039L8.30039 11.6H6.00039L5.00039 12.6H7.70039L8.70039 14.6H11.5004V19.6C11.5004 19.8833 11.4046 20.1208 11.2129 20.3125C11.0212 20.5042 10.7837 20.6 10.5004 20.6H8.07539ZM13.5004 20.6C13.2171 20.6 12.9796 20.5042 12.7879 20.3125C12.5962 20.1208 12.5004 19.8833 12.5004 19.6V14.6H15.3004L16.3004 12.6H19.0004L18.0004 11.6H15.7004L14.7004 13.6H12.5004V10.6H15.0004L14.0004 9.60001H12.5004V5.60001C12.5004 5.31667 12.5962 5.07917 12.7879 4.88751C12.9796 4.69584 13.2171 4.60001 13.5004 4.60001H15.9254C16.1087 4.60001 16.2796 4.64584 16.4379 4.73751C16.5962 4.82917 16.7171 4.95834 16.8004 5.12501L18.7504 8.60001H17.3004L16.3004 6.60001H14.0004V7.60001H15.7004L16.7004 9.60001H19.3004L20.7254 12.1C20.7587 12.1833 20.7879 12.2667 20.8129 12.35C20.8379 12.4333 20.8504 12.5167 20.8504 12.6C20.8504 12.6667 20.8087 12.8333 20.7254 13.1L19.3004 15.6H16.7004L15.7004 17.6H14.0004V18.6H16.3004L17.3004 16.6H18.7504L16.8004 20.075C16.7171 20.2417 16.5962 20.3708 16.4379 20.4625C16.2796 20.5542 16.1087 20.6 15.9254 20.6H13.5004Z" fill="#C7AEFF"/>
</svg>
