<svg width="32" height="32" viewBox="0 0 32 32" fill="none" xmlns="http://www.w3.org/2000/svg">
<path d="M20.3993 22.267L22.266 20.4003L17.3327 15.467V9.33366H14.666V16.5337L20.3993 22.267ZM15.9993 29.3337C14.1549 29.3337 12.4216 28.9837 10.7993 28.2837C9.17713 27.5837 7.76602 26.6337 6.56602 25.4337C5.36602 24.2337 4.41602 22.8225 3.71602 21.2003C3.01602 19.5781 2.66602 17.8448 2.66602 16.0003C2.66602 14.1559 3.01602 12.4225 3.71602 10.8003C4.41602 9.1781 5.36602 7.76699 6.56602 6.56699C7.76602 5.36699 9.17713 4.41699 10.7993 3.71699C12.4216 3.01699 14.1549 2.66699 15.9993 2.66699C17.8438 2.66699 19.5771 3.01699 21.1993 3.71699C22.8216 4.41699 24.2327 5.36699 25.4327 6.56699C26.6327 7.76699 27.5827 9.1781 28.2827 10.8003C28.9827 12.4225 29.3327 14.1559 29.3327 16.0003C29.3327 17.8448 28.9827 19.5781 28.2827 21.2003C27.5827 22.8225 26.6327 24.2337 25.4327 25.4337C24.2327 26.6337 22.8216 27.5837 21.1993 28.2837C19.5771 28.9837 17.8438 29.3337 15.9993 29.3337ZM15.9993 26.667C18.9549 26.667 21.4716 25.6281 23.5493 23.5503C25.6271 21.4725 26.666 18.9559 26.666 16.0003C26.666 13.0448 25.6271 10.5281 23.5493 8.45033C21.4716 6.37255 18.9549 5.33366 15.9993 5.33366C13.0438 5.33366 10.5271 6.37255 8.44935 8.45033C6.37157 10.5281 5.33268 13.0448 5.33268 16.0003C5.33268 18.9559 6.37157 21.4725 8.44935 23.5503C10.5271 25.6281 13.0438 26.667 15.9993 26.667Z" fill="white"/>
</svg>
