<svg width="32" height="32" viewBox="0 0 32 32" fill="none" xmlns="http://www.w3.org/2000/svg">
<path d="M13.3327 21.3337C15.5549 21.3337 17.4438 20.5559 18.9993 19.0003C20.5549 17.4448 21.3327 15.5559 21.3327 13.3337C21.3327 11.1114 20.5549 9.22255 18.9993 7.66699C17.4438 6.11144 15.5549 5.33366 13.3327 5.33366C11.1105 5.33366 9.22157 6.11144 7.66602 7.66699C6.11046 9.22255 5.33268 11.1114 5.33268 13.3337C5.33268 15.5559 6.11046 17.4448 7.66602 19.0003C9.22157 20.5559 11.1105 21.3337 13.3327 21.3337ZM11.9993 17.3337V8.00033H14.666V17.3337H11.9993ZM7.33268 17.3337V10.667H9.99935V17.3337H7.33268ZM16.666 17.3337V12.0003H19.3327V17.3337H16.666ZM27.466 29.3337L19.8993 21.767C18.9882 22.4781 17.9771 23.0281 16.866 23.417C15.7549 23.8059 14.5771 24.0003 13.3327 24.0003C10.3549 24.0003 7.83268 22.967 5.76602 20.9003C3.69935 18.8337 2.66602 16.3114 2.66602 13.3337C2.66602 10.3559 3.69935 7.83366 5.76602 5.76699C7.83268 3.70033 10.3549 2.66699 13.3327 2.66699C16.3105 2.66699 18.8327 3.70033 20.8993 5.76699C22.966 7.83366 23.9993 10.3559 23.9993 13.3337C23.9993 14.5781 23.8049 15.7559 23.416 16.867C23.0271 17.9781 22.4771 18.9892 21.766 19.9003L29.3327 27.467L27.466 29.3337Z" fill="white"/>
</svg>
