<svg width="32" height="32" viewBox="0 0 32 32" fill="none" xmlns="http://www.w3.org/2000/svg">
<path d="M22.8667 27.6L14.8 19.4667C14.3556 19.6444 13.9056 19.7778 13.45 19.8667C12.9944 19.9556 12.5111 20 12 20C9.77778 20 7.88889 19.2222 6.33333 17.6667C4.77778 16.1111 4 14.2222 4 12C4 11.2 4.11111 10.4389 4.33333 9.71667C4.55556 8.99444 4.86667 8.31111 5.26667 7.66667L10.1333 12.5333L12.5333 10.1333L7.66667 5.26667C8.31111 4.86667 8.99444 4.55556 9.71667 4.33333C10.4389 4.11111 11.2 4 12 4C14.2222 4 16.1111 4.77778 17.6667 6.33333C19.2222 7.88889 20 9.77778 20 12C20 12.5111 19.9556 12.9944 19.8667 13.45C19.7778 13.9056 19.6444 14.3556 19.4667 14.8L27.6 22.8667C27.8667 23.1333 28 23.4556 28 23.8333C28 24.2111 27.8667 24.5333 27.6 24.8L24.8 27.6C24.5333 27.8667 24.2111 28 23.8333 28C23.4556 28 23.1333 27.8667 22.8667 27.6ZM23.8333 24.7667L24.7333 23.8667L16.2 15.3333C16.6 14.8889 16.8889 14.3722 17.0667 13.7833C17.2444 13.1944 17.3333 12.6 17.3333 12C17.3333 10.6667 16.9056 9.50556 16.05 8.51667C15.1944 7.52778 14.1333 6.93333 12.8667 6.73333L15.3333 9.2C15.6 9.46667 15.7333 9.77778 15.7333 10.1333C15.7333 10.4889 15.6 10.8 15.3333 11.0667L11.0667 15.3333C10.8 15.6 10.4889 15.7333 10.1333 15.7333C9.77778 15.7333 9.46667 15.6 9.2 15.3333L6.73333 12.8667C6.93333 14.1333 7.52778 15.1944 8.51667 16.05C9.50556 16.9056 10.6667 17.3333 12 17.3333C12.5778 17.3333 13.1556 17.2444 13.7333 17.0667C14.3111 16.8889 14.8333 16.6111 15.3 16.2333L23.8333 24.7667Z" fill="white"/>
</svg>
