<svg width="32" height="32" viewBox="0 0 32 32" fill="none" xmlns="http://www.w3.org/2000/svg">
<path d="M18.2908 25.4861L10.7908 5.48608C10.6926 5.22397 10.5167 4.9981 10.2866 4.83864C10.0565 4.67919 9.78326 4.59375 9.50334 4.59375C9.22342 4.59375 8.95016 4.67919 8.72009 4.83864C8.49002 4.9981 8.3141 5.22397 8.21584 5.48608L0.715839 25.4861C0.591794 25.8267 0.607245 26.2024 0.758832 26.5317C0.910419 26.8609 1.18588 27.117 1.52529 27.2442C1.86471 27.3714 2.24061 27.3594 2.57125 27.2109C2.90189 27.0624 3.1605 26.7893 3.29084 26.4511L5.55084 20.4248C5.55974 20.401 5.5757 20.3805 5.59658 20.3659C5.61747 20.3514 5.64228 20.3436 5.66771 20.3436H13.339C13.3644 20.3436 13.3892 20.3514 13.4101 20.3659C13.431 20.3805 13.4469 20.401 13.4558 20.4248L15.7158 26.4511C15.8462 26.7893 16.1048 27.0624 16.4354 27.2109C16.7661 27.3594 17.142 27.3714 17.4814 27.2442C17.8208 27.117 18.0963 26.8609 18.2478 26.5317C18.3994 26.2024 18.4149 25.8267 18.2908 25.4861ZM6.67584 17.4236L9.38647 10.1955C9.39546 10.1717 9.41146 10.1513 9.43233 10.1369C9.45321 10.1225 9.47797 10.1148 9.50334 10.1148C9.5287 10.1148 9.55347 10.1225 9.57435 10.1369C9.59522 10.1513 9.61122 10.1717 9.62021 10.1955L12.3308 17.4248C12.3379 17.4437 12.3403 17.464 12.3378 17.4841C12.3353 17.5041 12.328 17.5232 12.3165 17.5398C12.305 17.5563 12.2897 17.5699 12.2718 17.5793C12.254 17.5886 12.2341 17.5935 12.214 17.5936H6.79271C6.77255 17.5935 6.75269 17.5886 6.73483 17.5793C6.71698 17.5699 6.70165 17.5563 6.69017 17.5398C6.67869 17.5232 6.67139 17.5041 6.66889 17.4841C6.6664 17.464 6.66878 17.4437 6.67584 17.4248V17.4236ZM25.0515 10.5936C22.444 10.5748 20.109 12.0855 19.114 14.4311C18.9714 14.7667 18.968 15.1453 19.1046 15.4834C19.2411 15.8216 19.5064 16.0917 19.8421 16.2342C20.1778 16.3768 20.5563 16.3801 20.8945 16.2436C21.2326 16.107 21.5027 15.8417 21.6452 15.5061C22.2002 14.2005 23.5058 13.3536 24.9777 13.3436C26.9977 13.3298 28.6283 14.9998 28.6283 17.0217C28.6284 17.046 28.6189 17.0694 28.602 17.0869C28.5851 17.1044 28.562 17.1146 28.5377 17.1155C27.1677 17.1536 25.5427 17.2448 24.0927 17.4155C20.6708 17.818 18.6283 19.6836 18.6283 22.4061C18.6283 23.8555 19.1758 25.1561 20.1702 26.0736C21.1033 26.933 22.3783 27.4061 23.7533 27.4061C25.6908 27.4061 27.359 26.9061 28.6246 25.9548H28.6283C28.6276 26.1354 28.6624 26.3144 28.7307 26.4815C28.7991 26.6486 28.8997 26.8006 29.0269 26.9288C29.154 27.0571 29.3051 27.159 29.4717 27.2288C29.6382 27.2987 29.8168 27.335 29.9974 27.3358C30.178 27.3365 30.3569 27.3018 30.524 27.2334C30.6912 27.165 30.8432 27.0644 30.9714 26.9372C31.0996 26.8101 31.2016 26.659 31.2714 26.4924C31.3412 26.3259 31.3776 26.1473 31.3783 25.9667V17.0292C31.3783 13.518 28.5658 10.6192 25.0515 10.5936ZM23.7533 24.6561C22.6577 24.6561 21.3783 24.0667 21.3783 22.4061C21.3783 21.7392 21.6177 21.2723 22.1552 20.8917C22.6783 20.5211 23.4802 20.2567 24.414 20.1467C25.734 19.9911 27.2152 19.9055 28.4852 19.8673C28.5022 19.8673 28.519 19.8707 28.5345 19.8774C28.5501 19.8841 28.5642 19.8938 28.5759 19.9061C28.5876 19.9184 28.5967 19.9329 28.6026 19.9488C28.6085 19.9647 28.6111 19.9816 28.6102 19.9986C28.4408 23.1311 26.8446 24.6561 23.7533 24.6561Z" fill="white"/>
</svg>
