<svg width="32" height="32" viewBox="0 0 32 32" fill="none" xmlns="http://www.w3.org/2000/svg">
<path d="M9.32812 12.6665C10.4327 12.6665 11.3281 11.7711 11.3281 10.6665C11.3281 9.56193 10.4327 8.6665 9.32812 8.6665C8.22356 8.6665 7.32812 9.56193 7.32812 10.6665C7.32812 11.7711 8.22356 12.6665 9.32812 12.6665Z" stroke="white" stroke-width="1.5" stroke-linecap="round" stroke-linejoin="round"/>
<path d="M27.9947 14.6667C27.9965 15.2933 27.9974 15.96 27.9974 16.6667C27.9974 22.6373 27.9974 25.624 26.1427 27.4787C24.2881 29.3333 21.3027 29.3333 15.3307 29.3333C9.36006 29.3333 6.3734 29.3333 4.51873 27.4787C2.66406 25.624 2.66406 22.6387 2.66406 16.6667C2.66406 10.696 2.66406 7.70933 4.51873 5.85467C6.3734 4 9.35873 4 15.3307 4C16.0374 4 16.7041 4.00089 17.3307 4.00267" stroke="white" stroke-width="1.5" stroke-linecap="round"/>
<path d="M24.6667 2.6665L25.0107 3.59584C25.4613 4.8145 25.6867 5.42384 26.1307 5.86784C26.576 6.31317 27.1853 6.5385 28.404 6.98917L29.3333 7.33317L28.404 7.67717C27.1853 8.12784 26.576 8.35317 26.132 8.79717C25.6867 9.2425 25.4613 9.85184 25.0107 11.0705L24.6667 11.9998L24.3227 11.0705C23.872 9.85184 23.6467 9.2425 23.2027 8.7985C22.7573 8.35317 22.148 8.12784 20.9293 7.67717L20 7.33317L20.9293 6.98917C22.148 6.5385 22.7573 6.31317 23.2013 5.86917C23.6467 5.42384 23.872 4.8145 24.3227 3.59584L24.6667 2.6665Z" stroke="white" stroke-width="1.5" stroke-linejoin="round"/>
<path d="M6 28.6667C11.8293 21.7 18.3653 12.512 27.9973 18.7227" stroke="white" stroke-width="1.5"/>
</svg>
