<svg width="32" height="32" viewBox="0 0 32 32" fill="none" xmlns="http://www.w3.org/2000/svg">
<path d="M6.66667 28C6.28889 28 5.97244 27.872 5.71733 27.616C5.46222 27.36 5.33422 27.0436 5.33333 26.6667V23.4333C5.33333 23.0778 5.4 22.7387 5.53333 22.416C5.66667 22.0933 5.85556 21.8102 6.1 21.5667L22.9 4.8C23.1667 4.53333 23.4667 4.33333 23.8 4.2C24.1333 4.06667 24.4667 4 24.8 4C25.1556 4 25.4947 4.06667 25.8173 4.2C26.14 4.33333 26.4231 4.53333 26.6667 4.8L28.5333 6.66667C28.8 6.91111 29 7.19467 29.1333 7.51733C29.2667 7.84 29.3333 8.17867 29.3333 8.53333C29.3333 8.86667 29.2667 9.2 29.1333 9.53333C29 9.86667 28.8 10.1667 28.5333 10.4333L11.7667 27.2333C11.5222 27.4778 11.2391 27.6667 10.9173 27.8C10.5956 27.9333 10.2564 28 9.9 28H6.66667ZM8 25.3333H9.86667L22.9667 12.2667L22.0333 11.3L21.0667 10.3667L8 23.4667V25.3333ZM22.0333 11.3L21.0667 10.3667L22.9667 12.2667L22.0333 11.3ZM18.6667 28C20.3111 28 21.8333 27.5889 23.2333 26.7667C24.6333 25.9444 25.3333 24.8 25.3333 23.3333C25.3333 22.6222 25.1556 22.0053 24.8 21.4827C24.4444 20.96 23.9778 20.4769 23.4 20.0333C23.0889 19.8111 22.7556 19.7 22.4 19.7C22.0444 19.7 21.7444 19.8333 21.5 20.1C21.2556 20.3667 21.1333 20.6947 21.1333 21.084C21.1333 21.4733 21.2889 21.7787 21.6 22C21.9111 22.2444 22.1667 22.4667 22.3667 22.6667C22.5667 22.8667 22.6667 23.0889 22.6667 23.3333C22.6667 23.8444 22.2609 24.3058 21.4493 24.7173C20.6378 25.1289 19.7102 25.3342 18.6667 25.3333C18.2889 25.3333 17.9724 25.4613 17.7173 25.7173C17.4622 25.9733 17.3342 26.2898 17.3333 26.6667C17.3324 27.0436 17.4604 27.3604 17.7173 27.6173C17.9742 27.8742 18.2907 28.0018 18.6667 28ZM12 8C12 8.31111 11.8058 8.59467 11.4173 8.85067C11.0289 9.10667 10.1342 9.55644 8.73333 10.2C6.95556 10.9778 5.72222 11.6836 5.03333 12.3173C4.34444 12.9511 4 13.7342 4 14.6667C4 15.2444 4.13333 15.7556 4.4 16.2C4.66667 16.6444 5.01111 17.0333 5.43333 17.3667C5.72222 17.6111 6.04444 17.7169 6.4 17.684C6.75556 17.6511 7.05556 17.4898 7.3 17.2C7.54444 16.9102 7.65556 16.588 7.63333 16.2333C7.61111 15.8787 7.45556 15.5787 7.16667 15.3333C7.01111 15.2222 6.88889 15.1111 6.8 15C6.71111 14.8889 6.66667 14.7778 6.66667 14.6667C6.66667 14.4 6.86667 14.1333 7.26667 13.8667C7.66667 13.6 8.51111 13.1889 9.8 12.6333C11.7556 11.7889 13.0556 11.0222 13.7 10.3333C14.3444 9.64444 14.6667 8.86667 14.6667 8C14.6667 6.77778 14.1778 5.80578 13.2 5.084C12.2222 4.36222 10.9333 4.00089 9.33333 4C8.33333 4 7.43867 4.17778 6.64933 4.53333C5.86 4.88889 5.25467 5.32222 4.83333 5.83333C4.58889 6.12222 4.48889 6.44444 4.53333 6.8C4.57778 7.15556 4.74444 7.44444 5.03333 7.66667C5.32222 7.91111 5.64444 8.01111 6 7.96667C6.35556 7.92222 6.65556 7.77778 6.9 7.53333C7.21111 7.22222 7.55556 7 7.93333 6.86667C8.31111 6.73333 8.77778 6.66667 9.33333 6.66667C10.2444 6.66667 10.9169 6.8 11.3507 7.06667C11.7844 7.33333 12.0009 7.64444 12 8Z" fill="white"/>
</svg>
