<svg width="32" height="32" viewBox="0 0 32 32" fill="none" xmlns="http://www.w3.org/2000/svg">
<path d="M10.9289 19.6599C11.2413 19.8827 11.6155 20.0023 11.9992 20.002C12.383 20.0016 12.757 19.8813 13.0689 19.6579C13.3808 19.4248 13.6178 19.1057 13.7509 18.7399L14.4449 16.6059C14.6114 16.1031 14.893 15.6462 15.2673 15.2715C15.6416 14.8968 16.0983 14.6148 16.6009 14.4479L18.7729 13.7419C19.1372 13.6112 19.4511 13.3694 19.6705 13.0506C19.8898 12.7318 20.0034 12.3521 19.9953 11.9653C19.9871 11.5784 19.8575 11.2038 19.6249 10.8946C19.3923 10.5853 19.0684 10.357 18.6989 10.2419L16.5609 9.54988C16.0578 9.38368 15.6005 9.10218 15.2254 8.72784C14.8504 8.35351 14.5681 7.89671 14.4009 7.39388L13.6949 5.22588C13.5668 4.86786 13.3309 4.55833 13.0197 4.33987C12.7084 4.1214 12.3372 4.00472 11.9569 4.00588C11.5712 4.00423 11.1948 4.12384 10.8807 4.34778C10.5667 4.57172 10.331 4.88869 10.2069 5.25388L9.49492 7.43388C9.32772 7.9218 9.05233 8.36559 8.68936 8.73202C8.32639 9.09846 7.88523 9.37805 7.39892 9.54988L5.23092 10.2519C4.86873 10.3799 4.5555 10.6177 4.33486 10.9321C4.11423 11.2466 3.99719 11.622 4.00005 12.0061C4.00291 12.3903 4.12553 12.7639 4.35083 13.0751C4.57612 13.3862 4.89287 13.6193 5.25692 13.7419L7.39092 14.4359C7.89475 14.6042 8.35244 14.8876 8.72771 15.2636C9.10298 15.6395 9.38552 16.0977 9.55292 16.6019L10.2569 18.7619C10.3829 19.1219 10.6189 19.4359 10.9309 19.6579M8.01292 12.5259L6.30292 11.9959L8.03092 11.4339C8.82009 11.162 9.53548 10.7108 10.1209 10.1159C10.7049 9.51588 11.1449 8.79588 11.4089 8.00388L11.9389 6.28588L12.4989 8.00988C12.7641 8.81014 13.2131 9.53718 13.8097 10.1328C14.4064 10.7284 15.1342 11.1761 15.9349 11.4399L17.6949 11.9779L15.9749 12.5379C15.1735 12.8023 14.4453 13.2508 13.8486 13.8476C13.2519 14.4443 12.8033 15.1725 12.5389 15.9739L12.0089 17.6879L11.4509 15.9699C11.1871 15.1672 10.7386 14.4376 10.1415 13.8398C9.54437 13.242 8.81531 12.7906 8.01292 12.5259ZM21.0669 27.7019C21.3385 27.895 21.6637 27.9985 21.9969 27.9979C22.3328 27.9945 22.6592 27.8868 22.9312 27.6898C23.2031 27.4927 23.4071 27.216 23.5149 26.8979L24.0109 25.3739C24.1169 25.0579 24.2969 24.7679 24.5309 24.5319C24.7649 24.2959 25.0549 24.1179 25.3709 24.0139L26.9149 23.5099C27.2343 23.4004 27.5108 23.1927 27.7049 22.9165C27.8991 22.6403 28.0009 22.3097 27.9958 21.9722C27.9907 21.6346 27.8789 21.3073 27.6765 21.0371C27.4741 20.7669 27.1914 20.5677 26.8689 20.4679L25.3409 19.9699C25.025 19.864 24.7379 19.6866 24.5019 19.4513C24.266 19.2161 24.0877 18.9295 23.9809 18.6139L23.4769 17.0659C23.3685 16.748 23.1628 16.4722 22.8889 16.2778C22.615 16.0833 22.2869 15.98 21.951 15.9824C21.6151 15.9849 21.2885 16.0929 21.0175 16.2913C20.7464 16.4898 20.5447 16.7684 20.4409 17.0879L19.9469 18.6119C19.845 18.9252 19.6722 19.2107 19.4418 19.4463C19.2115 19.6818 18.9299 19.861 18.6189 19.9699L17.0669 20.4759C16.832 20.5576 16.6193 20.6929 16.4459 20.8711C16.2724 21.0493 16.1428 21.2655 16.0675 21.5026C15.9922 21.7396 15.9731 21.991 16.0119 22.2366C16.0507 22.4823 16.1462 22.7156 16.2909 22.9179C16.4889 23.1979 16.7689 23.4079 17.0909 23.5179L18.6169 24.0119C18.9339 24.1187 19.2217 24.2977 19.4577 24.5348C19.6938 24.7718 19.8715 25.0604 19.9769 25.3779L20.4829 26.9259C20.5925 27.2388 20.7966 27.51 21.0669 27.7019ZM19.2389 22.1159L18.8829 21.9979L19.2509 21.8699C19.8574 21.6599 20.4074 21.3131 20.8583 20.8563C21.3092 20.3995 21.6488 19.8451 21.8509 19.2359L21.9669 18.8799L22.0869 19.2419C22.2911 19.8548 22.6353 20.4118 23.0921 20.8687C23.549 21.3255 24.106 21.6697 24.7189 21.8739L25.1089 21.9999L24.7489 22.1179C24.1345 22.3228 23.5764 22.6684 23.1191 23.1271C22.6619 23.5857 22.318 24.1448 22.1149 24.7599L21.9969 25.1219L21.8809 24.7599C21.6789 24.1431 21.3347 23.5824 20.8762 23.1231C20.4176 22.6638 19.8574 22.3188 19.2409 22.1159" fill="white"/>
</svg>
