<svg width="32" height="32" viewBox="0 0 32 32" fill="none" xmlns="http://www.w3.org/2000/svg">
<path d="M12.9788 14.3732L7.79079 19.6758C6.23079 21.2705 5.45079 22.0678 5.34546 23.0398C5.32235 23.2461 5.32235 23.4523 5.34546 23.6585C5.45213 24.6318 6.23079 25.4278 7.79079 27.0225L7.98946 27.2252C8.82146 28.0772 9.23879 28.5025 9.73613 28.7878C10.0277 28.9549 10.3339 29.0843 10.6548 29.1758C11.2055 29.3332 11.7961 29.3332 12.9788 29.3332C14.1601 29.3332 14.7521 29.3332 15.3028 29.1758C15.6237 29.0834 15.9295 28.9545 16.2201 28.7892C16.7188 28.5025 17.1348 28.0772 17.9668 27.2252L21.7601 23.3492M12.9788 14.3732L17.7548 9.49717C19.6028 7.6105 20.5281 6.6665 21.6788 6.6665C22.8295 6.6665 23.7521 7.6105 25.6001 9.49984L26.5908 10.5132C28.4161 12.3772 29.3281 13.3105 29.3281 14.4665C29.3281 15.6225 28.4148 16.5545 26.5895 18.4185L21.7601 23.3492M12.9788 14.3732L21.7601 23.3492" stroke="white" stroke-width="1.5" stroke-linecap="round" stroke-linejoin="round"/>
<path d="M7.33073 2.6665L7.67473 3.59584C8.1254 4.8145 8.35073 5.42384 8.79473 5.86784C9.24006 6.31317 9.8494 6.5385 11.0681 6.98917L11.9974 7.33317L11.0681 7.67717C9.8494 8.12784 9.24006 8.35317 8.79606 8.79717C8.35073 9.2425 8.1254 9.85184 7.67473 11.0705L7.33073 11.9998L6.98673 11.0705C6.53606 9.85184 6.31073 9.2425 5.86673 8.7985C5.4214 8.35317 4.81206 8.12784 3.5934 7.67717L2.66406 7.33317L3.5934 6.98917C4.81206 6.5385 5.4214 6.31317 5.8654 5.86917C6.31073 5.42384 6.53606 4.8145 6.98673 3.59584L7.33073 2.6665Z" stroke="white" stroke-width="1.5" stroke-linejoin="round"/>
</svg>
