<svg width="32" height="32" viewBox="0 0 32 32" fill="none" xmlns="http://www.w3.org/2000/svg">
<path d="M25.9974 1.3335L24.5441 4.54683L21.3307 6.00016L24.5441 7.4535L25.9974 10.6668L27.4641 7.4535L30.6641 6.00016L27.4641 4.54683L25.9974 1.3335ZM15.9974 2.66683C8.66406 2.66683 2.66406 8.66683 2.66406 16.0002C2.66406 23.3335 8.66406 29.3335 15.9974 29.3335C23.3307 29.3335 29.3307 23.3335 29.3307 16.0002C29.3307 14.0402 28.8907 12.1735 28.1307 10.4935L26.4774 14.0935C26.5974 14.7202 26.6641 15.3335 26.6641 16.0002C26.6641 21.9068 21.9041 26.6668 15.9974 26.6668C10.0907 26.6668 5.33073 21.9068 5.33073 16.0002V15.8135C7.04628 15.1719 8.61123 14.1836 9.92799 12.9105C11.2447 11.6373 12.2851 10.1065 12.9841 8.4135C14.4245 10.1841 16.2953 11.5552 18.4175 12.3957C20.5396 13.2361 22.8419 13.5177 25.1041 13.2135L23.9441 10.6668H23.3307C19.5707 10.6668 16.1307 8.66683 14.2107 5.4935C14.7974 5.40016 15.3841 5.3335 15.9974 5.3335C16.6641 5.3335 17.2774 5.40016 17.8907 5.50683L21.5041 3.88016C19.7773 3.08381 17.8989 2.66992 15.9974 2.66683ZM10.7841 6.66683C9.95871 9.21133 8.20744 11.3528 5.8774 12.6668C6.7174 10.0935 8.49073 8.00016 10.7841 6.66683ZM11.9974 15.6668C11.5554 15.6668 11.1314 15.8424 10.8189 16.155C10.5063 16.4675 10.3307 16.8915 10.3307 17.3335C10.3307 17.7755 10.5063 18.1994 10.8189 18.512C11.1314 18.8246 11.5554 19.0002 11.9974 19.0002C12.2163 19.0002 12.433 18.9571 12.6352 18.8733C12.8374 18.7895 13.0211 18.6668 13.1759 18.512C13.3307 18.3572 13.4534 18.1735 13.5372 17.9713C13.621 17.7691 13.6641 17.5524 13.6641 17.3335C13.6641 17.1146 13.621 16.8979 13.5372 16.6957C13.4534 16.4935 13.3307 16.3097 13.1759 16.155C13.0211 16.0002 12.8374 15.8775 12.6352 15.7937C12.433 15.7099 12.2163 15.6668 11.9974 15.6668ZM19.9974 15.6668C19.5554 15.6668 19.1314 15.8424 18.8189 16.155C18.5063 16.4675 18.3307 16.8915 18.3307 17.3335C18.3307 17.7755 18.5063 18.1994 18.8189 18.512C19.1314 18.8246 19.5554 19.0002 19.9974 19.0002C20.4394 19.0002 20.8633 18.8246 21.1759 18.512C21.4885 18.1994 21.6641 17.7755 21.6641 17.3335C21.6641 16.8915 21.4885 16.4675 21.1759 16.155C20.8633 15.8424 20.4394 15.6668 19.9974 15.6668Z" fill="white"/>
</svg>
