<svg width="32" height="32" viewBox="0 0 32 32" fill="none" xmlns="http://www.w3.org/2000/svg">
<path d="M11.9974 18.6665H25.3307L20.7307 12.6665L17.6641 16.6665L15.5974 13.9998L11.9974 18.6665ZM10.6641 23.9998C9.93073 23.9998 9.30317 23.7389 8.7814 23.2172C8.25962 22.6954 7.99828 22.0674 7.9974 21.3332V5.33317C7.9974 4.59984 8.25873 3.97228 8.7814 3.4505C9.30406 2.92873 9.93162 2.66739 10.6641 2.6665H26.6641C27.3974 2.6665 28.0254 2.92784 28.5481 3.4505C29.0707 3.97317 29.3316 4.60073 29.3307 5.33317V21.3332C29.3307 22.0665 29.0698 22.6945 28.5481 23.2172C28.0263 23.7398 27.3983 24.0007 26.6641 23.9998H10.6641ZM10.6641 21.3332H26.6641V5.33317H10.6641V21.3332ZM5.33073 29.3332C4.5974 29.3332 3.96984 29.0723 3.44806 28.5505C2.92628 28.0287 2.66495 27.4007 2.66406 26.6665V7.99984H5.33073V26.6665H23.9974V29.3332H5.33073Z" fill="white"/>
</svg>
