<svg width="32" height="32" viewBox="0 0 32 32" fill="none" xmlns="http://www.w3.org/2000/svg">
<path d="M22.6652 9.33335C22.0487 7.7277 21.0407 6.30159 19.7328 5.18465C18.4249 4.06772 16.8586 3.29538 15.1762 2.93784C13.4939 2.58031 11.7488 2.64892 10.0997 3.13744C8.45062 3.62595 6.94977 4.51888 5.7336 5.73506C4.51742 6.95124 3.62449 8.45209 3.13597 10.1012C2.64745 11.7503 2.57884 13.4953 2.93638 15.1777C3.29391 16.86 4.06625 18.4264 5.18319 19.7343C6.30012 21.0422 7.72624 22.0502 9.33189 22.6667C9.94837 24.2723 10.9564 25.6985 12.2643 26.8154C13.5722 27.9323 15.1385 28.7047 16.8209 29.0622C18.5032 29.4197 20.2483 29.3511 21.8974 28.8626C23.5465 28.3741 25.0473 27.4812 26.2635 26.265C27.4797 25.0488 28.3726 23.548 28.8611 21.8989C29.3497 20.2498 29.4183 18.5047 29.0607 16.8224C28.7032 15.14 27.9309 13.5737 26.8139 12.2658C25.697 10.9578 24.2709 9.94984 22.6652 9.33335ZM20.5319 11.4667C20.6291 11.9675 20.6782 12.4765 20.6786 12.9867C20.6749 13.5884 20.6033 14.1877 20.4652 14.7734L17.2119 11.5467C17.7975 11.4086 18.3969 11.337 18.9986 11.3334C19.5087 11.3337 20.0177 11.3828 20.5186 11.48L20.5319 11.4667ZM19.2786 17.3334C18.747 18.0899 18.0884 18.7485 17.3319 19.28L12.7186 14.6667C13.2501 13.9102 13.9087 13.2515 14.6652 12.72L19.2786 17.3334ZM8.61189 19.28C7.68815 18.641 6.9161 17.8069 6.35034 16.8366C5.78458 15.8663 5.43893 14.7835 5.33784 13.6648C5.23676 12.5462 5.3827 11.419 5.76535 10.363C6.14801 9.30697 6.75802 8.34794 7.55224 7.55371C8.34647 6.75948 9.30551 6.14947 10.3615 5.76682C11.4175 5.38417 12.5447 5.23822 13.6634 5.33931C14.782 5.44039 15.8648 5.78604 16.8351 6.3518C17.8054 6.91756 18.6396 7.68962 19.2786 8.61335H18.9452C16.2057 8.63098 13.5851 9.73435 11.6579 11.6815C9.73083 13.6286 8.65457 16.2605 8.66522 19C8.66522 19.1067 8.67856 19.2267 8.67856 19.3334L8.61189 19.28ZM11.4119 20.4667C11.3146 19.9659 11.2655 19.4569 11.2652 18.9467C11.2689 18.345 11.3405 17.7457 11.4786 17.16L14.7186 20.4C14.1329 20.5381 13.5336 20.6097 12.9319 20.6134C12.4456 20.6265 11.9592 20.5953 11.4786 20.52L11.4119 20.4667ZM18.9986 26.6667C17.7506 26.6643 16.522 26.3585 15.4186 25.7754C14.3153 25.1924 13.3703 24.3497 12.6652 23.32H12.9986C15.7357 23.3165 18.36 22.2285 20.2967 20.2943C22.2335 18.36 23.3248 15.7372 23.3319 13V12.6667C24.6863 13.5906 25.7089 14.9245 26.2494 16.4724C26.79 18.0203 26.8201 19.7007 26.3353 21.2669C25.8505 22.8332 24.8763 24.2028 23.5559 25.1746C22.2354 26.1465 20.6381 26.6694 18.9986 26.6667Z" fill="white"/>
</svg>
