<svg width="32" height="32" viewBox="0 0 32 32" fill="none" xmlns="http://www.w3.org/2000/svg">
<path fill-rule="evenodd" clip-rule="evenodd" d="M21.3333 26.6667V24H10.6667C9.2 24 8 22.8 8 21.3333V10.6667H5.33333C4.97971 10.6667 4.64057 10.5262 4.39052 10.2761C4.14048 10.0261 4 9.68696 4 9.33333C4 8.97971 4.14048 8.64057 4.39052 8.39052C4.64057 8.14048 4.97971 8 5.33333 8H8V5.33333C8 4.97971 8.14048 4.64057 8.39052 4.39052C8.64057 4.14048 8.97971 4 9.33333 4C9.68696 4 10.0261 4.14048 10.2761 4.39052C10.5262 4.64057 10.6667 4.97971 10.6667 5.33333V8H22.6667L25.3333 5.33333L26.6667 6.66667L24 9.33333V21.3333H26.6667C27.0203 21.3333 27.3594 21.4738 27.6095 21.7239C27.8595 21.9739 28 22.313 28 22.6667C28 23.0203 27.8595 23.3594 27.6095 23.6095C27.3594 23.8595 27.0203 24 26.6667 24H24V26.6667C24 27.0203 23.8595 27.3594 23.6095 27.6095C23.3594 27.8595 23.0203 28 22.6667 28C22.313 28 21.9739 27.8595 21.7239 27.6095C21.4738 27.3594 21.3333 27.0203 21.3333 26.6667ZM21.3333 21.3333V12L12 21.3333H21.3333ZM10.6667 10.6667V20L20 10.6667H10.6667Z" fill="white"/>
</svg>
