<svg width="930" height="1155" viewBox="0 0 930 1155" fill="none" xmlns="http://www.w3.org/2000/svg">
<ellipse cx="329.79" cy="382.602" rx="329.79" ry="382.602" transform="matrix(0.988057 0.154091 -0.0588806 0.998265 231.422 132.991)" fill="url(#paint0_radial_595_15055)"/>
<g style="mix-blend-mode:plus-lighter" filter="url(#filter0_f_595_15055)">
<ellipse cx="580.781" cy="568.89" rx="306.581" ry="233.818" transform="rotate(108.234 580.781 568.89)" fill="url(#paint1_radial_595_15055)"/>
</g>
<path d="M540.786 1002C754.402 1002 927.571 823.585 927.571 603.5C927.571 383.415 754.402 205 540.786 205C327.17 205 154 383.415 154 603.5C154 823.585 327.17 1002 540.786 1002Z" stroke="white" stroke-opacity="0.2" stroke-width="2.4523" stroke-miterlimit="10" style="mix-blend-mode:soft-light"/>
<path d="M540.782 986.6C746.143 986.6 912.62 815.081 912.62 603.5C912.62 391.92 746.143 220.4 540.782 220.4C335.421 220.4 168.943 391.92 168.943 603.5C168.943 815.081 335.421 986.6 540.782 986.6Z" stroke="white" stroke-opacity="0.2" stroke-width="2.4523" stroke-miterlimit="10" style="mix-blend-mode:soft-light"/>
<path d="M540.782 971.196C737.885 971.196 897.669 806.573 897.669 603.5C897.669 400.427 737.885 235.804 540.782 235.804C343.678 235.804 183.895 400.427 183.895 603.5C183.895 806.573 343.678 971.196 540.782 971.196Z" stroke="white" stroke-opacity="0.2" stroke-width="2.4523" stroke-miterlimit="10" style="mix-blend-mode:soft-light"/>
<path d="M540.786 955.796C729.634 955.796 882.726 798.068 882.726 603.5C882.726 408.932 729.634 251.204 540.786 251.204C351.937 251.204 198.846 408.932 198.846 603.5C198.846 798.068 351.937 955.796 540.786 955.796Z" stroke="white" stroke-opacity="0.2" stroke-width="2.4523" stroke-miterlimit="10" style="mix-blend-mode:soft-light"/>
<path d="M540.782 940.396C721.375 940.396 867.775 789.562 867.775 603.5C867.775 417.437 721.375 266.603 540.782 266.603C360.189 266.603 213.789 417.437 213.789 603.5C213.789 789.562 360.189 940.396 540.782 940.396Z" stroke="white" stroke-opacity="0.2" stroke-width="2.4523" stroke-miterlimit="10" style="mix-blend-mode:soft-light"/>
<path d="M540.784 924.997C713.122 924.997 852.83 781.058 852.83 603.5C852.83 425.942 713.122 282.003 540.784 282.003C368.446 282.003 228.738 425.942 228.738 603.5C228.738 781.058 368.446 924.997 540.784 924.997Z" stroke="white" stroke-opacity="0.2" stroke-width="2.4523" stroke-miterlimit="10" style="mix-blend-mode:soft-light"/>
<path d="M540.784 909.592C704.865 909.592 837.878 772.55 837.878 603.5C837.878 434.45 704.865 297.408 540.784 297.408C376.703 297.408 243.689 434.45 243.689 603.5C243.689 772.55 376.703 909.592 540.784 909.592Z" stroke="white" stroke-opacity="0.2" stroke-width="2.4523" stroke-miterlimit="10" style="mix-blend-mode:soft-light"/>
<path d="M540.784 894.193C696.61 894.193 822.931 764.045 822.931 603.5C822.931 442.955 696.61 312.808 540.784 312.808C384.958 312.808 258.637 442.955 258.637 603.5C258.637 764.045 384.958 894.193 540.784 894.193Z" stroke="white" stroke-opacity="0.2" stroke-width="2.4523" stroke-miterlimit="10" style="mix-blend-mode:soft-light"/>
<path d="M540.784 878.793C688.355 878.793 807.984 755.54 807.984 603.5C807.984 451.46 688.355 328.208 540.784 328.208C393.214 328.208 273.584 451.46 273.584 603.5C273.584 755.54 393.214 878.793 540.784 878.793Z" stroke="white" stroke-opacity="0.2" stroke-width="2.4523" stroke-miterlimit="10" style="mix-blend-mode:soft-light"/>
<path d="M540.782 863.393C680.098 863.393 793.035 747.035 793.035 603.5C793.035 459.965 680.098 343.607 540.782 343.607C401.467 343.607 288.529 459.965 288.529 603.5C288.529 747.035 401.467 863.393 540.782 863.393Z" stroke="white" stroke-opacity="0.2" stroke-width="2.4523" stroke-miterlimit="10" style="mix-blend-mode:soft-light"/>
<path d="M540.784 847.989C671.842 847.989 778.086 738.528 778.086 603.5C778.086 468.473 671.842 359.012 540.784 359.012C409.726 359.012 303.482 468.473 303.482 603.5C303.482 738.528 409.726 847.989 540.784 847.989Z" stroke="white" stroke-opacity="0.2" stroke-width="2.4523" stroke-miterlimit="10" style="mix-blend-mode:soft-light"/>
<path d="M540.78 832.589C663.583 832.589 763.135 730.022 763.135 603.5C763.135 476.978 663.583 374.411 540.78 374.411C417.977 374.411 318.426 476.978 318.426 603.5C318.426 730.022 417.977 832.589 540.78 832.589Z" stroke="white" stroke-opacity="0.2" stroke-width="2.4523" stroke-miterlimit="10" style="mix-blend-mode:soft-light"/>
<path d="M540.784 817.189C655.332 817.189 748.192 721.517 748.192 603.5C748.192 485.483 655.332 389.811 540.784 389.811C426.236 389.811 333.377 485.483 333.377 603.5C333.377 721.517 426.236 817.189 540.784 817.189Z" stroke="white" stroke-opacity="0.2" stroke-width="2.4523" stroke-miterlimit="10" style="mix-blend-mode:soft-light"/>
<path d="M540.781 801.789C647.073 801.789 733.241 713.012 733.241 603.5C733.241 493.988 647.073 405.211 540.781 405.211C434.488 405.211 348.32 493.988 348.32 603.5C348.32 713.012 434.488 801.789 540.781 801.789Z" stroke="white" stroke-opacity="0.2" stroke-width="2.4523" stroke-miterlimit="10" style="mix-blend-mode:soft-light"/>
<path d="M540.782 786.385C638.818 786.385 718.291 704.505 718.291 603.5C718.291 502.495 638.818 420.615 540.782 420.615C442.747 420.615 363.273 502.495 363.273 603.5C363.273 704.505 442.747 786.385 540.782 786.385Z" stroke="white" stroke-opacity="0.2" stroke-width="2.4523" stroke-miterlimit="10" style="mix-blend-mode:soft-light"/>
<path d="M540.784 770.985C630.565 770.985 703.346 695.999 703.346 603.5C703.346 511 630.565 436.015 540.784 436.015C451.004 436.015 378.223 511 378.223 603.5C378.223 695.999 451.004 770.985 540.784 770.985Z" stroke="white" stroke-opacity="0.2" stroke-width="2.4523" stroke-miterlimit="10" style="mix-blend-mode:soft-light"/>
<path d="M540.786 755.585C622.312 755.585 688.401 687.495 688.401 603.5C688.401 519.506 622.312 451.415 540.786 451.415C459.261 451.415 393.172 519.506 393.172 603.5C393.172 687.495 459.261 755.585 540.786 755.585Z" stroke="white" stroke-opacity="0.2" stroke-width="2.4523" stroke-miterlimit="10" style="mix-blend-mode:soft-light"/>
<path d="M540.783 740.185C614.053 740.185 673.45 678.989 673.45 603.5C673.45 528.01 614.053 466.814 540.783 466.814C467.513 466.814 408.115 528.01 408.115 603.5C408.115 678.989 467.513 740.185 540.783 740.185Z" stroke="white" stroke-opacity="0.2" stroke-width="2.4523" stroke-miterlimit="10" style="mix-blend-mode:soft-light"/>
<path d="M540.784 724.781C605.797 724.781 658.501 670.482 658.501 603.5C658.501 536.518 605.797 482.219 540.784 482.219C475.772 482.219 423.068 536.518 423.068 603.5C423.068 670.482 475.772 724.781 540.784 724.781Z" stroke="white" stroke-opacity="0.2" stroke-width="2.4523" stroke-miterlimit="10" style="mix-blend-mode:soft-light"/>
<path d="M540.783 709.382C597.54 709.382 643.552 661.977 643.552 603.5C643.552 545.023 597.54 497.619 540.783 497.619C484.025 497.619 438.014 545.023 438.014 603.5C438.014 661.977 484.025 709.382 540.783 709.382Z" stroke="white" stroke-opacity="0.2" stroke-width="2.4523" stroke-miterlimit="10" style="mix-blend-mode:soft-light"/>
<path d="M540.783 693.982C589.285 693.982 628.605 653.472 628.605 603.5C628.605 553.529 589.285 513.019 540.783 513.019C492.28 513.019 452.961 553.529 452.961 603.5C452.961 653.472 492.28 693.982 540.783 693.982Z" stroke="white" stroke-opacity="0.2" stroke-width="2.4523" stroke-miterlimit="10" style="mix-blend-mode:soft-light"/>
<path d="M540.783 678.582C581.031 678.582 613.658 644.966 613.658 603.5C613.658 562.033 581.031 528.418 540.783 528.418C500.535 528.418 467.908 562.033 467.908 603.5C467.908 644.966 500.535 678.582 540.783 678.582Z" stroke="white" stroke-opacity="0.2" stroke-width="2.4523" stroke-miterlimit="10" style="mix-blend-mode:soft-light"/>
<path d="M540.782 663.178C572.773 663.178 598.706 636.459 598.706 603.5C598.706 570.541 572.773 543.823 540.782 543.823C508.792 543.823 482.859 570.541 482.859 603.5C482.859 636.459 508.792 663.178 540.782 663.178Z" stroke="white" stroke-opacity="0.2" stroke-width="2.4523" stroke-miterlimit="10" style="mix-blend-mode:soft-light"/>
<path d="M540.781 647.778C564.516 647.778 583.757 627.954 583.757 603.5C583.757 579.046 564.516 559.222 540.781 559.222C517.046 559.222 497.805 579.046 497.805 603.5C497.805 627.954 517.046 647.778 540.781 647.778Z" stroke="white" stroke-opacity="0.2" stroke-width="2.4523" stroke-miterlimit="10" style="mix-blend-mode:soft-light"/>
<defs>
<filter id="filter0_f_595_15055" x="53.3692" y="-16.8591" width="1054.82" height="1171.5" filterUnits="userSpaceOnUse" color-interpolation-filters="sRGB">
<feFlood flood-opacity="0" result="BackgroundImageFix"/>
<feBlend mode="normal" in="SourceGraphic" in2="BackgroundImageFix" result="shape"/>
<feGaussianBlur stdDeviation="142.72" result="effect1_foregroundBlur_595_15055"/>
</filter>
<radialGradient id="paint0_radial_595_15055" cx="0" cy="0" r="1" gradientUnits="userSpaceOnUse" gradientTransform="translate(329.79 422.147) rotate(90) scale(343.056 295.703)">
<stop stop-color="#97AFC6" stop-opacity="0.8"/>
<stop offset="1" stop-color="#97AFC6" stop-opacity="0"/>
</radialGradient>
<radialGradient id="paint1_radial_595_15055" cx="0" cy="0" r="1" gradientUnits="userSpaceOnUse" gradientTransform="translate(580.781 545.236) rotate(90) scale(325.007 863.169)">
<stop stop-color="#602A9A"/>
<stop offset="1" stop-color="#200E34"/>
</radialGradient>
</defs>
</svg>
